%
M48
M72
T01C0.02400
T02C0.03150
T03C0.03200
T04C0.04000
%
T01
X30050Y81202
T02
X44605Y94161
X54605Y94161
X54605Y84161
X44605Y84161
X44605Y74161
X54605Y74161
X54605Y64161
X44605Y64161
T03
X11800Y44102
X26800Y44102
X26800Y14102
X11800Y14102
T04
X61800Y19102
X61800Y39102
X96800Y39102
X96800Y29102
X96800Y19102
X121800Y19102
X121800Y29102
X121800Y39102
X16800Y59102
X16800Y69102
X16800Y79102
X16800Y89102
X16800Y99102
M30
