G75*
%MOIN*%
%OFA0B0*%
%FSLAX25Y25*%
%IPPOS*%
%LPD*%
%AMOC8*
5,1,8,0,0,1.08239X$1,22.5*
%
%ADD10C,0.00000*%
%ADD11R,0.01295X0.00028*%
%ADD12R,0.00386X0.00028*%
%ADD13R,0.00413X0.00028*%
%ADD14R,0.01736X0.00028*%
%ADD15R,0.01323X0.00028*%
%ADD16R,0.01874X0.00028*%
%ADD17R,0.00441X0.00028*%
%ADD18R,0.01681X0.00028*%
%ADD19R,0.01791X0.00028*%
%ADD20R,0.01654X0.00028*%
%ADD21R,0.01902X0.00028*%
%ADD22R,0.00469X0.00028*%
%ADD23R,0.00496X0.00028*%
%ADD24R,0.01819X0.00028*%
%ADD25R,0.00551X0.00028*%
%ADD26R,0.00579X0.00028*%
%ADD27R,0.01984X0.00028*%
%ADD28R,0.00634X0.00028*%
%ADD29R,0.02039X0.00028*%
%ADD30R,0.00661X0.00028*%
%ADD31R,0.02122X0.00028*%
%ADD32R,0.02094X0.00028*%
%ADD33R,0.00717X0.00028*%
%ADD34R,0.02150X0.00028*%
%ADD35R,0.00744X0.00028*%
%ADD36R,0.02177X0.00028*%
%ADD37R,0.02205X0.00028*%
%ADD38R,0.00772X0.00028*%
%ADD39R,0.02232X0.00028*%
%ADD40R,0.00827X0.00028*%
%ADD41R,0.02260X0.00028*%
%ADD42R,0.00854X0.00028*%
%ADD43R,0.00909X0.00028*%
%ADD44R,0.02287X0.00028*%
%ADD45R,0.00937X0.00028*%
%ADD46R,0.01764X0.00028*%
%ADD47R,0.00992X0.00028*%
%ADD48R,0.01020X0.00028*%
%ADD49R,0.01047X0.00028*%
%ADD50R,0.01102X0.00028*%
%ADD51R,0.01130X0.00028*%
%ADD52R,0.01185X0.00028*%
%ADD53R,0.01213X0.00028*%
%ADD54R,0.01268X0.00028*%
%ADD55R,0.00055X0.00028*%
%ADD56R,0.01543X0.00028*%
%ADD57R,0.01075X0.00028*%
%ADD58R,0.01378X0.00028*%
%ADD59R,0.00799X0.00028*%
%ADD60R,0.00110X0.00028*%
%ADD61R,0.01709X0.00028*%
%ADD62R,0.01406X0.00028*%
%ADD63R,0.00220X0.00028*%
%ADD64R,0.01571X0.00028*%
%ADD65R,0.02012X0.00028*%
%ADD66R,0.02067X0.00028*%
%ADD67R,0.00303X0.00028*%
%ADD68R,0.01929X0.00028*%
%ADD69R,0.01846X0.00028*%
%ADD70R,0.01957X0.00028*%
%ADD71R,0.00882X0.00028*%
%ADD72R,0.01157X0.00028*%
%ADD73R,0.01350X0.00028*%
%ADD74R,0.01240X0.00028*%
%ADD75R,0.00606X0.00028*%
%ADD76R,0.00965X0.00028*%
%ADD77R,0.00689X0.00028*%
%ADD78R,0.00524X0.00028*%
%ADD79R,0.00193X0.00028*%
%ADD80R,0.00165X0.00028*%
%ADD81R,0.00358X0.00028*%
%ADD82R,0.00331X0.00028*%
%ADD83R,0.00248X0.00028*%
%ADD84R,0.00276X0.00028*%
%ADD85R,0.00138X0.00028*%
%ADD86R,0.00028X0.00028*%
%ADD87R,0.00083X0.00028*%
%ADD88R,0.01488X0.00028*%
%ADD89R,0.01516X0.00028*%
%ADD90R,0.03362X0.00028*%
%ADD91R,0.03390X0.00028*%
%ADD92R,0.03335X0.00028*%
%ADD93R,0.03307X0.00028*%
%ADD94R,0.03280X0.00028*%
%ADD95R,0.03252X0.00028*%
%ADD96R,0.03224X0.00028*%
%ADD97R,0.03197X0.00028*%
%ADD98R,0.03169X0.00028*%
%ADD99R,0.03142X0.00028*%
%ADD100R,0.03114X0.00028*%
%ADD101R,0.03059X0.00028*%
%ADD102R,0.03031X0.00028*%
%ADD103R,0.03004X0.00028*%
%ADD104R,0.02949X0.00028*%
%ADD105R,0.02921X0.00028*%
%ADD106R,0.02894X0.00028*%
%ADD107R,0.02839X0.00028*%
%ADD108R,0.02783X0.00028*%
%ADD109R,0.02728X0.00028*%
%ADD110R,0.02701X0.00028*%
%ADD111R,0.02646X0.00028*%
%ADD112R,0.02591X0.00028*%
%ADD113R,0.02535X0.00028*%
%ADD114R,0.02480X0.00028*%
%ADD115R,0.02425X0.00028*%
%ADD116R,0.02398X0.00028*%
%ADD117R,0.02343X0.00028*%
%ADD118R,0.01626X0.00028*%
%ADD119R,0.01598X0.00028*%
%ADD120R,0.01433X0.00028*%
%ADD121R,0.01461X0.00028*%
%ADD122R,0.03500X0.00028*%
%ADD123R,0.02673X0.00028*%
%ADD124R,0.03472X0.00028*%
%ADD125R,0.03417X0.00028*%
%ADD126R,0.02618X0.00028*%
%ADD127R,0.02508X0.00028*%
%ADD128R,0.02453X0.00028*%
%ADD129R,0.02370X0.00028*%
%ADD130R,0.03087X0.00028*%
%ADD131R,0.02315X0.00028*%
%ADD132R,0.02976X0.00028*%
%ADD133R,0.02811X0.00028*%
%ADD134R,0.02563X0.00028*%
%ADD135R,0.02756X0.00028*%
%ADD136R,0.02866X0.00028*%
%ADD137R,0.03445X0.00028*%
%ADD138R,0.03528X0.00028*%
%ADD139R,0.03583X0.00028*%
%ADD140R,0.03638X0.00028*%
%ADD141R,0.03555X0.00028*%
%ADD142R,0.03693X0.00028*%
%ADD143R,0.03720X0.00028*%
%ADD144R,0.03610X0.00028*%
%ADD145R,0.03776X0.00028*%
%ADD146R,0.03665X0.00028*%
%ADD147R,0.03831X0.00028*%
%ADD148R,0.03748X0.00028*%
%ADD149R,0.03886X0.00028*%
%ADD150R,0.03913X0.00028*%
%ADD151R,0.03803X0.00028*%
%ADD152R,0.03969X0.00028*%
%ADD153R,0.03858X0.00028*%
%ADD154R,0.04024X0.00028*%
%ADD155R,0.03941X0.00028*%
%ADD156R,0.04079X0.00028*%
%ADD157R,0.04106X0.00028*%
%ADD158R,0.03996X0.00028*%
%ADD159R,0.04161X0.00028*%
%ADD160R,0.04051X0.00028*%
%ADD161R,0.04217X0.00028*%
%ADD162R,0.04244X0.00028*%
%ADD163R,0.04299X0.00028*%
%ADD164R,0.04134X0.00028*%
%ADD165R,0.04354X0.00028*%
%ADD166R,0.04189X0.00028*%
%ADD167R,0.04409X0.00028*%
%ADD168R,0.04437X0.00028*%
%ADD169R,0.04492X0.00028*%
%ADD170R,0.04547X0.00028*%
%ADD171R,0.04272X0.00028*%
%ADD172R,0.04575X0.00028*%
%ADD173R,0.04327X0.00028*%
%ADD174R,0.04602X0.00028*%
%ADD175R,0.04630X0.00028*%
D10*
X0001800Y0004102D02*
X0001800Y0109063D01*
X0140501Y0109063D01*
X0140501Y0004102D01*
X0001800Y0004102D01*
D11*
X0071253Y0070326D03*
X0073678Y0070326D03*
X0076103Y0070326D03*
X0081505Y0073275D03*
X0081505Y0073303D03*
X0083324Y0073248D03*
X0083324Y0074488D03*
X0085335Y0074488D03*
X0085032Y0078567D03*
X0083737Y0079090D03*
X0083737Y0079724D03*
X0084233Y0080413D03*
X0085831Y0081350D03*
X0085831Y0081378D03*
X0085831Y0081405D03*
X0085831Y0081433D03*
X0085831Y0081460D03*
X0085831Y0081488D03*
X0085831Y0081515D03*
X0085831Y0081543D03*
X0085831Y0081571D03*
X0085831Y0081598D03*
X0085831Y0081626D03*
X0085831Y0081653D03*
X0085831Y0081681D03*
X0085831Y0081708D03*
X0085831Y0081736D03*
X0085831Y0081763D03*
X0085831Y0081791D03*
X0085831Y0081819D03*
X0085831Y0081846D03*
X0085831Y0081874D03*
X0085831Y0081901D03*
X0085831Y0081929D03*
X0084095Y0083748D03*
X0084757Y0087496D03*
X0087044Y0089149D03*
X0089965Y0087689D03*
X0089965Y0087661D03*
X0078418Y0087716D03*
X0090737Y0074488D03*
X0090709Y0073248D03*
X0097186Y0070326D03*
D12*
X0095684Y0070326D03*
X0095160Y0070326D03*
X0095160Y0070354D03*
X0095160Y0070382D03*
X0095160Y0070409D03*
X0095160Y0070437D03*
X0095160Y0070464D03*
X0095160Y0070492D03*
X0095160Y0070519D03*
X0095160Y0070547D03*
X0095160Y0070575D03*
X0095160Y0070602D03*
X0095160Y0070630D03*
X0095160Y0070657D03*
X0095160Y0070685D03*
X0095160Y0070712D03*
X0095160Y0070740D03*
X0095160Y0070767D03*
X0095160Y0070795D03*
X0095160Y0070823D03*
X0095160Y0070850D03*
X0095160Y0070878D03*
X0095160Y0070905D03*
X0095160Y0070933D03*
X0095160Y0070960D03*
X0095160Y0070988D03*
X0095160Y0071015D03*
X0095160Y0071043D03*
X0095160Y0071071D03*
X0095160Y0071098D03*
X0095160Y0071126D03*
X0095160Y0071153D03*
X0095160Y0071181D03*
X0095160Y0071208D03*
X0095160Y0071236D03*
X0095160Y0071263D03*
X0095160Y0071291D03*
X0095160Y0071319D03*
X0095160Y0071346D03*
X0095160Y0071374D03*
X0094168Y0071015D03*
X0093176Y0071015D03*
X0093176Y0070988D03*
X0093176Y0070960D03*
X0093176Y0070933D03*
X0093176Y0070905D03*
X0093176Y0070878D03*
X0093176Y0070850D03*
X0093176Y0070823D03*
X0093176Y0070795D03*
X0093176Y0070767D03*
X0093176Y0070740D03*
X0093176Y0070712D03*
X0093176Y0070685D03*
X0093176Y0070657D03*
X0093176Y0070630D03*
X0093176Y0070602D03*
X0093176Y0070575D03*
X0093176Y0070547D03*
X0093176Y0070519D03*
X0093176Y0070492D03*
X0093176Y0070464D03*
X0093176Y0070437D03*
X0093176Y0070409D03*
X0093176Y0070382D03*
X0093176Y0070354D03*
X0093176Y0070326D03*
X0093176Y0071043D03*
X0093176Y0071071D03*
X0093176Y0071098D03*
X0093176Y0071126D03*
X0093176Y0071153D03*
X0093176Y0071181D03*
X0093176Y0071208D03*
X0093176Y0071236D03*
X0093176Y0071263D03*
X0093176Y0071291D03*
X0093176Y0071319D03*
X0093176Y0071374D03*
X0094774Y0073055D03*
X0094774Y0073082D03*
X0094774Y0073110D03*
X0094774Y0073138D03*
X0094774Y0073165D03*
X0094774Y0073193D03*
X0094774Y0073220D03*
X0094774Y0073248D03*
X0094774Y0073275D03*
X0094774Y0073303D03*
X0094774Y0073330D03*
X0094774Y0073358D03*
X0094774Y0073386D03*
X0094774Y0073413D03*
X0094774Y0073441D03*
X0094774Y0073468D03*
X0094774Y0073496D03*
X0094774Y0073523D03*
X0094774Y0073551D03*
X0094774Y0073578D03*
X0094774Y0073606D03*
X0094774Y0073634D03*
X0094774Y0073661D03*
X0094774Y0073689D03*
X0094774Y0073716D03*
X0094774Y0073744D03*
X0094774Y0073771D03*
X0094774Y0073799D03*
X0094774Y0073826D03*
X0094774Y0073854D03*
X0094774Y0073882D03*
X0094774Y0073909D03*
X0094774Y0073937D03*
X0094774Y0073964D03*
X0094774Y0073992D03*
X0094774Y0074019D03*
X0094774Y0074047D03*
X0094774Y0074075D03*
X0094774Y0074102D03*
X0094774Y0074130D03*
X0094774Y0074157D03*
X0094774Y0074185D03*
X0094774Y0074212D03*
X0094774Y0074240D03*
X0094774Y0074267D03*
X0094774Y0074295D03*
X0094774Y0074323D03*
X0094774Y0074350D03*
X0094774Y0074378D03*
X0094774Y0074405D03*
X0094774Y0074433D03*
X0094774Y0074460D03*
X0094774Y0074488D03*
X0094774Y0074515D03*
X0094774Y0074543D03*
X0094774Y0074571D03*
X0094774Y0074598D03*
X0094774Y0074626D03*
X0094774Y0074653D03*
X0094774Y0074681D03*
X0094774Y0074708D03*
X0094774Y0074736D03*
X0094774Y0074763D03*
X0094774Y0074791D03*
X0094774Y0074819D03*
X0094774Y0074846D03*
X0094774Y0074874D03*
X0094774Y0074901D03*
X0093369Y0074157D03*
X0093369Y0074130D03*
X0093369Y0074102D03*
X0092211Y0074240D03*
X0092184Y0074185D03*
X0092184Y0074157D03*
X0092184Y0074130D03*
X0092184Y0074102D03*
X0091330Y0074267D03*
X0091357Y0073523D03*
X0091330Y0073468D03*
X0091302Y0073441D03*
X0090089Y0074102D03*
X0090117Y0074212D03*
X0090144Y0074267D03*
X0089263Y0074736D03*
X0089235Y0073441D03*
X0089235Y0073413D03*
X0089207Y0073386D03*
X0087995Y0073964D03*
X0087995Y0073992D03*
X0087995Y0074019D03*
X0087995Y0074047D03*
X0087995Y0074075D03*
X0087995Y0074102D03*
X0087995Y0074130D03*
X0086810Y0074185D03*
X0086810Y0074212D03*
X0086810Y0074240D03*
X0086782Y0074102D03*
X0086782Y0074075D03*
X0086782Y0074047D03*
X0086782Y0074019D03*
X0086782Y0073992D03*
X0086782Y0073964D03*
X0086782Y0073937D03*
X0086782Y0073909D03*
X0086782Y0073882D03*
X0086782Y0073854D03*
X0086782Y0073826D03*
X0086782Y0073799D03*
X0086782Y0073771D03*
X0086782Y0073744D03*
X0086782Y0073716D03*
X0086782Y0073689D03*
X0086782Y0073661D03*
X0086782Y0073634D03*
X0086782Y0073606D03*
X0086782Y0073578D03*
X0086782Y0073551D03*
X0086782Y0073523D03*
X0086782Y0073496D03*
X0086782Y0073468D03*
X0086782Y0073441D03*
X0086782Y0073413D03*
X0086782Y0073386D03*
X0086782Y0073358D03*
X0086782Y0073330D03*
X0086782Y0073303D03*
X0086782Y0073275D03*
X0086782Y0073248D03*
X0086782Y0073220D03*
X0086782Y0073193D03*
X0086782Y0073165D03*
X0086782Y0073138D03*
X0086782Y0073110D03*
X0086782Y0073082D03*
X0086782Y0073055D03*
X0085956Y0073496D03*
X0085928Y0073468D03*
X0085956Y0074240D03*
X0085928Y0074295D03*
X0085349Y0074736D03*
X0084770Y0074295D03*
X0084743Y0074267D03*
X0084743Y0074240D03*
X0084715Y0074185D03*
X0084026Y0074075D03*
X0084026Y0074047D03*
X0083999Y0074130D03*
X0083999Y0074157D03*
X0083971Y0074185D03*
X0083971Y0074212D03*
X0084026Y0073716D03*
X0084026Y0073689D03*
X0083999Y0073606D03*
X0083999Y0073578D03*
X0083971Y0073551D03*
X0082676Y0073551D03*
X0082676Y0073578D03*
X0082648Y0073606D03*
X0082648Y0073634D03*
X0082621Y0073716D03*
X0082621Y0074019D03*
X0082648Y0074130D03*
X0082676Y0074157D03*
X0082676Y0074185D03*
X0081877Y0074185D03*
X0081408Y0074736D03*
X0080995Y0073578D03*
X0080995Y0073413D03*
X0081022Y0073386D03*
X0078322Y0074130D03*
X0078322Y0074157D03*
X0077164Y0074212D03*
X0077164Y0074240D03*
X0077137Y0074185D03*
X0077137Y0074157D03*
X0077137Y0074130D03*
X0077137Y0074102D03*
X0077137Y0074075D03*
X0076365Y0074019D03*
X0076337Y0074102D03*
X0076337Y0074130D03*
X0076310Y0074185D03*
X0076365Y0073744D03*
X0076365Y0073716D03*
X0076337Y0073661D03*
X0076337Y0073634D03*
X0076310Y0073578D03*
X0074408Y0073386D03*
X0074408Y0073082D03*
X0077605Y0071842D03*
X0077605Y0070326D03*
X0083282Y0078071D03*
X0085074Y0079118D03*
X0084715Y0080055D03*
X0083282Y0080082D03*
X0086286Y0078594D03*
X0086286Y0078567D03*
X0086286Y0084409D03*
X0086286Y0085208D03*
X0085377Y0085429D03*
X0084770Y0086090D03*
X0084522Y0084382D03*
X0085239Y0084354D03*
X0083282Y0085153D03*
X0082786Y0089673D03*
X0082786Y0089700D03*
X0086865Y0089949D03*
X0091605Y0088323D03*
X0077963Y0088846D03*
X0077963Y0088874D03*
X0090475Y0071842D03*
D13*
X0088560Y0071842D03*
X0087761Y0070326D03*
X0086961Y0071842D03*
X0085887Y0073413D03*
X0085914Y0073441D03*
X0085887Y0074323D03*
X0086824Y0074267D03*
X0086851Y0074323D03*
X0087981Y0074185D03*
X0087981Y0074157D03*
X0089194Y0073358D03*
X0090158Y0074295D03*
X0090186Y0074323D03*
X0090737Y0074736D03*
X0091261Y0074350D03*
X0091288Y0074323D03*
X0091316Y0074295D03*
X0092198Y0074212D03*
X0092225Y0074267D03*
X0092225Y0074295D03*
X0093355Y0074212D03*
X0093355Y0074185D03*
X0093190Y0071787D03*
X0093190Y0071346D03*
X0092639Y0070326D03*
X0095698Y0070354D03*
X0095698Y0070382D03*
X0095698Y0070409D03*
X0095698Y0070437D03*
X0095698Y0070464D03*
X0095698Y0070492D03*
X0095698Y0070519D03*
X0095698Y0070547D03*
X0095698Y0070575D03*
X0095698Y0070602D03*
X0095698Y0070630D03*
X0095698Y0070657D03*
X0095698Y0070685D03*
X0095698Y0070712D03*
X0095698Y0070740D03*
X0095698Y0070767D03*
X0095698Y0070795D03*
X0095698Y0070823D03*
X0095698Y0070850D03*
X0095698Y0070878D03*
X0095698Y0070905D03*
X0095698Y0070933D03*
X0095698Y0070960D03*
X0095698Y0070988D03*
X0095698Y0071015D03*
X0095698Y0071043D03*
X0095698Y0071071D03*
X0095698Y0071098D03*
X0095698Y0071126D03*
X0095698Y0071153D03*
X0095698Y0071181D03*
X0095698Y0071208D03*
X0095698Y0071236D03*
X0095698Y0071263D03*
X0095698Y0071291D03*
X0095698Y0071319D03*
X0095698Y0071346D03*
X0095698Y0071374D03*
X0095698Y0071401D03*
X0095698Y0071429D03*
X0095698Y0071456D03*
X0095698Y0071484D03*
X0095698Y0071512D03*
X0095698Y0071539D03*
X0095698Y0071567D03*
X0095698Y0071594D03*
X0095698Y0071622D03*
X0095698Y0071649D03*
X0095698Y0071677D03*
X0095698Y0071704D03*
X0095698Y0071732D03*
X0095698Y0071760D03*
X0095698Y0071787D03*
X0095698Y0071815D03*
X0095698Y0071842D03*
X0086272Y0078622D03*
X0086272Y0079862D03*
X0085473Y0080082D03*
X0083296Y0078098D03*
X0083324Y0074736D03*
X0082745Y0074295D03*
X0082717Y0074267D03*
X0082717Y0074240D03*
X0082690Y0074212D03*
X0082690Y0073523D03*
X0082717Y0073496D03*
X0081891Y0073358D03*
X0081863Y0074157D03*
X0081835Y0074405D03*
X0081009Y0073606D03*
X0081036Y0073358D03*
X0078308Y0074185D03*
X0078308Y0074212D03*
X0077178Y0074267D03*
X0077178Y0074295D03*
X0076324Y0074157D03*
X0076296Y0074212D03*
X0076269Y0074240D03*
X0076324Y0073606D03*
X0076296Y0073551D03*
X0075635Y0074736D03*
X0074394Y0073358D03*
X0074394Y0073110D03*
X0077591Y0071815D03*
X0077591Y0071787D03*
X0077591Y0071760D03*
X0077591Y0071732D03*
X0077591Y0071704D03*
X0077591Y0071677D03*
X0077591Y0071649D03*
X0077591Y0071622D03*
X0077591Y0071594D03*
X0077591Y0071567D03*
X0077591Y0071539D03*
X0077591Y0071512D03*
X0077591Y0071484D03*
X0077591Y0071456D03*
X0077591Y0071429D03*
X0077591Y0071401D03*
X0077591Y0071374D03*
X0077591Y0071346D03*
X0077591Y0071319D03*
X0077591Y0071291D03*
X0077591Y0071263D03*
X0077591Y0071236D03*
X0077591Y0071208D03*
X0077591Y0071181D03*
X0077591Y0071153D03*
X0077591Y0071126D03*
X0077591Y0071098D03*
X0077591Y0071071D03*
X0077591Y0071043D03*
X0077591Y0071015D03*
X0077591Y0070988D03*
X0077591Y0070960D03*
X0077591Y0070933D03*
X0077591Y0070905D03*
X0077591Y0070878D03*
X0077591Y0070850D03*
X0077591Y0070823D03*
X0077591Y0070795D03*
X0077591Y0070767D03*
X0077591Y0070740D03*
X0077591Y0070712D03*
X0077591Y0070685D03*
X0077591Y0070657D03*
X0077591Y0070630D03*
X0077591Y0070602D03*
X0077591Y0070575D03*
X0077591Y0070547D03*
X0077591Y0070519D03*
X0077591Y0070492D03*
X0077591Y0070464D03*
X0077591Y0070437D03*
X0077591Y0070409D03*
X0077591Y0070382D03*
X0077591Y0070354D03*
X0082056Y0070712D03*
X0082056Y0070740D03*
X0082056Y0070767D03*
X0082056Y0070795D03*
X0082056Y0070823D03*
X0082056Y0070850D03*
X0082056Y0070878D03*
X0082056Y0071291D03*
X0082056Y0071319D03*
X0082056Y0071346D03*
X0082056Y0071374D03*
X0082056Y0071401D03*
X0082056Y0071429D03*
X0082056Y0071456D03*
X0083930Y0073468D03*
X0083930Y0073496D03*
X0083957Y0073523D03*
X0083957Y0074240D03*
X0083930Y0074267D03*
X0084784Y0074323D03*
X0084812Y0074350D03*
X0084509Y0084354D03*
X0083296Y0084354D03*
X0084757Y0086118D03*
X0084757Y0086145D03*
X0086272Y0084437D03*
X0082772Y0089645D03*
X0077977Y0088819D03*
X0091591Y0088295D03*
X0091591Y0088267D03*
D14*
X0089938Y0087992D03*
X0082580Y0088185D03*
X0082580Y0088212D03*
X0078639Y0087165D03*
X0083957Y0082012D03*
X0083957Y0081984D03*
X0083957Y0081956D03*
X0083957Y0081929D03*
X0083957Y0081901D03*
X0083957Y0081874D03*
X0083957Y0081846D03*
X0083957Y0081819D03*
X0083957Y0081791D03*
X0083957Y0081763D03*
X0083957Y0081736D03*
X0083957Y0081708D03*
X0083957Y0081681D03*
X0083957Y0081653D03*
X0083957Y0081626D03*
X0083957Y0081598D03*
X0083957Y0081571D03*
X0083957Y0081543D03*
X0083957Y0081515D03*
X0083957Y0081488D03*
X0083957Y0081460D03*
X0085005Y0078291D03*
X0087761Y0071015D03*
X0089800Y0070326D03*
X0094788Y0074929D03*
X0094788Y0074956D03*
X0094788Y0074984D03*
X0094788Y0075012D03*
X0094788Y0075039D03*
X0094788Y0075067D03*
X0094788Y0075094D03*
X0094788Y0075122D03*
X0094788Y0075149D03*
X0094788Y0075177D03*
X0094788Y0075204D03*
X0094788Y0075232D03*
X0094788Y0075260D03*
D15*
X0097172Y0071842D03*
X0085322Y0073248D03*
X0083558Y0071842D03*
X0083558Y0070326D03*
X0076117Y0071842D03*
X0075676Y0073275D03*
X0075704Y0074433D03*
X0075676Y0074460D03*
X0075648Y0074488D03*
X0071267Y0071842D03*
X0083751Y0079118D03*
X0085019Y0078539D03*
X0085818Y0081956D03*
X0085818Y0081984D03*
X0085818Y0082012D03*
X0085818Y0082039D03*
X0085818Y0082067D03*
X0085818Y0082094D03*
X0085818Y0082122D03*
X0085818Y0082149D03*
X0085818Y0082177D03*
X0085818Y0082204D03*
X0085818Y0082232D03*
X0085818Y0082260D03*
X0085818Y0082287D03*
X0085818Y0082315D03*
X0085818Y0082342D03*
X0085818Y0082370D03*
X0085818Y0082397D03*
X0085818Y0082425D03*
X0085818Y0082452D03*
X0085818Y0082480D03*
X0085818Y0082508D03*
X0085763Y0083638D03*
X0084081Y0083720D03*
X0084770Y0087523D03*
X0084770Y0087551D03*
X0082648Y0088653D03*
X0082648Y0088681D03*
X0080278Y0087606D03*
X0078432Y0087689D03*
X0087058Y0089122D03*
D16*
X0087168Y0088626D03*
X0089924Y0088102D03*
X0084770Y0088378D03*
X0084770Y0088405D03*
X0082566Y0088075D03*
X0082566Y0088047D03*
X0081326Y0071842D03*
X0081326Y0071484D03*
X0081326Y0070685D03*
X0081326Y0070326D03*
X0091908Y0071015D03*
X0091908Y0071732D03*
D17*
X0092625Y0071456D03*
X0092625Y0071429D03*
X0092625Y0071401D03*
X0092625Y0071374D03*
X0092625Y0071346D03*
X0092625Y0071319D03*
X0092625Y0071291D03*
X0092625Y0070878D03*
X0092625Y0070850D03*
X0092625Y0070823D03*
X0092625Y0070795D03*
X0092625Y0070767D03*
X0092625Y0070740D03*
X0092625Y0070712D03*
X0092625Y0070685D03*
X0092625Y0070657D03*
X0092625Y0070630D03*
X0092625Y0070602D03*
X0092625Y0070575D03*
X0092625Y0070547D03*
X0092625Y0070519D03*
X0092625Y0070492D03*
X0092625Y0070464D03*
X0092625Y0070437D03*
X0092625Y0070409D03*
X0092625Y0070382D03*
X0092625Y0070354D03*
X0093204Y0071760D03*
X0095133Y0071787D03*
X0096263Y0071429D03*
X0096263Y0071401D03*
X0096263Y0071374D03*
X0096263Y0070850D03*
X0096263Y0070823D03*
X0096263Y0070795D03*
X0096263Y0070767D03*
X0096263Y0070740D03*
X0093341Y0074240D03*
X0092267Y0074350D03*
X0092239Y0074323D03*
X0091274Y0073413D03*
X0091247Y0073386D03*
X0090282Y0073330D03*
X0090200Y0074350D03*
X0090227Y0074378D03*
X0089180Y0073330D03*
X0087967Y0074212D03*
X0087967Y0074240D03*
X0086837Y0074295D03*
X0085873Y0074350D03*
X0084881Y0073330D03*
X0083889Y0073441D03*
X0083916Y0074295D03*
X0083889Y0074323D03*
X0082786Y0073413D03*
X0082759Y0073441D03*
X0082731Y0073468D03*
X0081822Y0074130D03*
X0081794Y0074433D03*
X0081022Y0073634D03*
X0081050Y0073330D03*
X0078294Y0074240D03*
X0078294Y0074267D03*
X0077219Y0074350D03*
X0077192Y0074323D03*
X0076255Y0074267D03*
X0076227Y0074295D03*
X0076282Y0073523D03*
X0076255Y0073496D03*
X0075235Y0073358D03*
X0074408Y0073330D03*
X0074408Y0073165D03*
X0074408Y0073138D03*
X0074601Y0071842D03*
X0074601Y0071815D03*
X0074601Y0071787D03*
X0074601Y0071760D03*
X0074601Y0071732D03*
X0074601Y0071704D03*
X0074601Y0071677D03*
X0074601Y0071649D03*
X0074601Y0071622D03*
X0074601Y0071594D03*
X0074601Y0071567D03*
X0074601Y0071539D03*
X0074601Y0071512D03*
X0074601Y0071484D03*
X0074601Y0071456D03*
X0074601Y0071429D03*
X0074601Y0071401D03*
X0074601Y0071374D03*
X0074601Y0071346D03*
X0074601Y0071319D03*
X0074601Y0071291D03*
X0074601Y0071263D03*
X0074601Y0071236D03*
X0074601Y0071208D03*
X0074601Y0071181D03*
X0074601Y0071153D03*
X0074601Y0071126D03*
X0074601Y0071098D03*
X0074601Y0071071D03*
X0074601Y0071043D03*
X0074601Y0071015D03*
X0074601Y0070988D03*
X0074601Y0070960D03*
X0074601Y0070933D03*
X0074601Y0070905D03*
X0074601Y0070878D03*
X0074601Y0070850D03*
X0074601Y0070823D03*
X0074601Y0070795D03*
X0074601Y0070767D03*
X0074601Y0070740D03*
X0072755Y0071842D03*
X0072176Y0071429D03*
X0072176Y0071401D03*
X0072176Y0071374D03*
X0072176Y0071346D03*
X0072176Y0071319D03*
X0072176Y0070795D03*
X0072176Y0070767D03*
X0072176Y0070740D03*
X0077026Y0070740D03*
X0077026Y0070767D03*
X0077026Y0070795D03*
X0077026Y0070823D03*
X0077026Y0070850D03*
X0077026Y0070878D03*
X0077026Y0070905D03*
X0077026Y0070933D03*
X0077026Y0070960D03*
X0077026Y0070988D03*
X0077026Y0071015D03*
X0077026Y0071043D03*
X0077026Y0071071D03*
X0077026Y0071098D03*
X0077026Y0071126D03*
X0077026Y0071153D03*
X0077026Y0071181D03*
X0077026Y0071208D03*
X0077026Y0071236D03*
X0077026Y0071263D03*
X0077026Y0071291D03*
X0077026Y0071319D03*
X0077026Y0071346D03*
X0077026Y0071374D03*
X0077026Y0071401D03*
X0077026Y0071429D03*
X0077026Y0071456D03*
X0077026Y0070712D03*
X0078184Y0070326D03*
X0078184Y0071842D03*
X0080003Y0071842D03*
X0080003Y0071263D03*
X0080003Y0071236D03*
X0080003Y0071208D03*
X0080003Y0071181D03*
X0080003Y0071153D03*
X0080003Y0071126D03*
X0080003Y0071098D03*
X0080003Y0071071D03*
X0080003Y0071043D03*
X0080003Y0071015D03*
X0080003Y0070988D03*
X0080003Y0070960D03*
X0080003Y0070933D03*
X0080003Y0070905D03*
X0080003Y0070878D03*
X0080003Y0070850D03*
X0080003Y0070823D03*
X0080003Y0070795D03*
X0080003Y0070767D03*
X0080003Y0070740D03*
X0080003Y0070712D03*
X0080003Y0070685D03*
X0080003Y0070657D03*
X0080003Y0070630D03*
X0080003Y0070602D03*
X0080003Y0070575D03*
X0080003Y0070547D03*
X0080003Y0070519D03*
X0080003Y0070492D03*
X0080003Y0070464D03*
X0080003Y0070437D03*
X0080003Y0070382D03*
X0080003Y0070326D03*
X0084467Y0070712D03*
X0084467Y0071456D03*
X0086975Y0071456D03*
X0086975Y0071429D03*
X0086975Y0071401D03*
X0086975Y0071374D03*
X0086975Y0071346D03*
X0086975Y0071319D03*
X0086975Y0071291D03*
X0086975Y0071484D03*
X0086975Y0071512D03*
X0086975Y0071539D03*
X0086975Y0071567D03*
X0086975Y0071594D03*
X0086975Y0071622D03*
X0086975Y0071649D03*
X0086975Y0071677D03*
X0086975Y0071704D03*
X0086975Y0071732D03*
X0086975Y0071760D03*
X0086975Y0071787D03*
X0086975Y0071815D03*
X0087774Y0070878D03*
X0087774Y0070850D03*
X0087774Y0070823D03*
X0087774Y0070795D03*
X0087774Y0070767D03*
X0087774Y0070740D03*
X0087774Y0070712D03*
X0087774Y0070685D03*
X0087774Y0070657D03*
X0087774Y0070630D03*
X0087774Y0070602D03*
X0087774Y0070575D03*
X0087774Y0070547D03*
X0087774Y0070519D03*
X0087774Y0070492D03*
X0087774Y0070464D03*
X0087774Y0070437D03*
X0087774Y0070409D03*
X0087774Y0070382D03*
X0087774Y0070354D03*
X0088546Y0071291D03*
X0088546Y0071319D03*
X0088546Y0071346D03*
X0088546Y0071374D03*
X0088546Y0071401D03*
X0088546Y0071429D03*
X0088546Y0071456D03*
X0088546Y0071484D03*
X0088546Y0071512D03*
X0088546Y0071539D03*
X0088546Y0071567D03*
X0088546Y0071594D03*
X0088546Y0071622D03*
X0088546Y0071649D03*
X0088546Y0071677D03*
X0088546Y0071704D03*
X0088546Y0071732D03*
X0088546Y0071760D03*
X0088546Y0071787D03*
X0088546Y0071815D03*
X0090475Y0071815D03*
X0090475Y0071787D03*
X0090475Y0071760D03*
X0090475Y0071732D03*
X0090475Y0071704D03*
X0090475Y0071677D03*
X0090475Y0071649D03*
X0090475Y0071622D03*
X0090475Y0071594D03*
X0090475Y0071567D03*
X0090475Y0071539D03*
X0090475Y0071512D03*
X0090475Y0071484D03*
X0090475Y0071456D03*
X0090475Y0071429D03*
X0090475Y0071401D03*
X0090475Y0071374D03*
X0090475Y0071346D03*
X0090475Y0071319D03*
X0090475Y0071291D03*
X0090475Y0071263D03*
X0090475Y0071236D03*
X0090475Y0071208D03*
X0090475Y0071181D03*
X0090475Y0071153D03*
X0090475Y0071126D03*
X0090475Y0071098D03*
X0090475Y0071071D03*
X0090475Y0071043D03*
X0090475Y0071015D03*
X0090475Y0070988D03*
X0090475Y0070960D03*
X0090475Y0070933D03*
X0090475Y0070905D03*
X0090475Y0070878D03*
X0090475Y0070850D03*
X0090475Y0070823D03*
X0090475Y0070795D03*
X0090475Y0070767D03*
X0090475Y0070740D03*
X0090475Y0070712D03*
X0091054Y0071291D03*
X0091054Y0071319D03*
X0091054Y0071346D03*
X0091054Y0071374D03*
X0091054Y0071401D03*
X0091054Y0071429D03*
X0091054Y0071456D03*
X0086259Y0078649D03*
X0085074Y0079090D03*
X0083310Y0078126D03*
X0083310Y0080055D03*
X0083310Y0084382D03*
X0084137Y0085374D03*
X0084770Y0086173D03*
X0084770Y0086200D03*
X0085267Y0084326D03*
X0086259Y0084464D03*
X0082786Y0089618D03*
X0086865Y0089893D03*
X0086865Y0089921D03*
X0091578Y0088240D03*
X0091578Y0088212D03*
X0077991Y0088791D03*
D18*
X0078611Y0087248D03*
X0082580Y0088267D03*
X0087127Y0088791D03*
X0087127Y0088819D03*
X0089938Y0087964D03*
X0083930Y0083197D03*
X0083930Y0083169D03*
X0083930Y0083141D03*
X0083930Y0083114D03*
X0083930Y0083086D03*
X0083930Y0083059D03*
X0083930Y0083031D03*
X0083930Y0083004D03*
X0083930Y0082976D03*
X0083930Y0082949D03*
X0083930Y0082921D03*
X0083930Y0082893D03*
X0083930Y0082866D03*
X0083930Y0082838D03*
X0083930Y0082811D03*
X0083930Y0082783D03*
X0083930Y0082756D03*
X0083930Y0082728D03*
X0083930Y0082700D03*
X0083930Y0082673D03*
X0083930Y0082645D03*
X0083930Y0079531D03*
X0085005Y0078319D03*
X0085363Y0073992D03*
X0076103Y0071815D03*
X0071253Y0071815D03*
X0097186Y0071815D03*
X0097186Y0070354D03*
D19*
X0097186Y0070382D03*
X0096938Y0070905D03*
X0097186Y0071787D03*
X0091950Y0071787D03*
X0091950Y0070960D03*
X0089800Y0070657D03*
X0089800Y0070630D03*
X0089800Y0070602D03*
X0089800Y0070575D03*
X0089800Y0070547D03*
X0089800Y0070519D03*
X0089800Y0070492D03*
X0089800Y0070464D03*
X0089800Y0070437D03*
X0089800Y0070409D03*
X0089800Y0070382D03*
X0089800Y0070354D03*
X0087761Y0071043D03*
X0085005Y0078236D03*
X0085005Y0078263D03*
X0083985Y0080606D03*
X0083985Y0080634D03*
X0083985Y0080661D03*
X0083985Y0080689D03*
X0083985Y0080716D03*
X0083985Y0080744D03*
X0083985Y0080771D03*
X0083985Y0080799D03*
X0083985Y0080826D03*
X0083985Y0080854D03*
X0082580Y0088157D03*
X0080237Y0087937D03*
X0087154Y0088708D03*
X0071253Y0071787D03*
X0071501Y0071263D03*
X0071005Y0070905D03*
X0071253Y0070382D03*
X0073678Y0070382D03*
X0076103Y0070382D03*
D20*
X0076117Y0070354D03*
X0073692Y0070354D03*
X0071267Y0070354D03*
X0083558Y0070354D03*
X0083558Y0071815D03*
X0087774Y0070988D03*
X0083916Y0079504D03*
X0083916Y0079586D03*
X0084054Y0080551D03*
X0083916Y0083224D03*
X0083916Y0083252D03*
X0083916Y0083279D03*
X0083916Y0083307D03*
X0083916Y0083334D03*
X0083916Y0083362D03*
X0083916Y0083389D03*
X0083916Y0083417D03*
X0083916Y0083445D03*
X0083916Y0083472D03*
X0078597Y0087275D03*
X0080251Y0087826D03*
X0080251Y0087854D03*
X0082593Y0088295D03*
X0084770Y0088075D03*
X0084770Y0088047D03*
X0084770Y0088019D03*
X0089952Y0087937D03*
D21*
X0087182Y0088598D03*
X0084784Y0088433D03*
X0082552Y0088019D03*
X0080237Y0088019D03*
X0085005Y0078181D03*
X0083544Y0071760D03*
X0083544Y0070409D03*
X0081312Y0070409D03*
X0081312Y0070382D03*
X0081312Y0070354D03*
X0081312Y0070437D03*
X0081312Y0070464D03*
X0081312Y0070492D03*
X0081312Y0070519D03*
X0081312Y0070547D03*
X0081312Y0070575D03*
X0081312Y0070602D03*
X0081312Y0070630D03*
X0081312Y0070657D03*
X0081312Y0071512D03*
X0081312Y0071567D03*
X0081312Y0071594D03*
X0081312Y0071622D03*
X0081312Y0071649D03*
X0081312Y0071677D03*
X0081312Y0071704D03*
X0081312Y0071732D03*
X0081312Y0071760D03*
X0081312Y0071787D03*
X0081312Y0071815D03*
X0076103Y0071760D03*
X0076103Y0070409D03*
X0073678Y0070409D03*
X0071253Y0070409D03*
X0071253Y0071760D03*
X0087761Y0071098D03*
X0091894Y0071043D03*
X0091894Y0071704D03*
X0097186Y0071760D03*
X0097186Y0070409D03*
D22*
X0098095Y0070712D03*
X0098095Y0070740D03*
X0098095Y0070767D03*
X0098095Y0070795D03*
X0098095Y0071291D03*
X0098095Y0071319D03*
X0098095Y0071346D03*
X0098095Y0071374D03*
X0098095Y0071401D03*
X0098095Y0071429D03*
X0098095Y0071456D03*
X0096276Y0071456D03*
X0096276Y0070878D03*
X0096276Y0070712D03*
X0095119Y0071760D03*
X0093328Y0074267D03*
X0093328Y0074295D03*
X0091233Y0074378D03*
X0090269Y0074405D03*
X0087954Y0074267D03*
X0086879Y0074350D03*
X0085831Y0074378D03*
X0084839Y0074378D03*
X0083847Y0074350D03*
X0083875Y0073413D03*
X0083847Y0073386D03*
X0082800Y0074350D03*
X0082772Y0074323D03*
X0085859Y0073386D03*
X0084481Y0071429D03*
X0084481Y0071401D03*
X0084481Y0071374D03*
X0084481Y0071346D03*
X0084481Y0071319D03*
X0084481Y0071291D03*
X0084481Y0071263D03*
X0084481Y0071236D03*
X0084481Y0071208D03*
X0084481Y0071181D03*
X0084481Y0071153D03*
X0084481Y0071126D03*
X0084481Y0071098D03*
X0084481Y0071071D03*
X0084481Y0071043D03*
X0084481Y0071015D03*
X0084481Y0070988D03*
X0084481Y0070960D03*
X0084481Y0070933D03*
X0084481Y0070905D03*
X0084481Y0070878D03*
X0084481Y0070850D03*
X0084481Y0070823D03*
X0084481Y0070795D03*
X0084481Y0070767D03*
X0084481Y0070740D03*
X0082635Y0070740D03*
X0082635Y0070767D03*
X0082635Y0070795D03*
X0082635Y0070823D03*
X0082635Y0070850D03*
X0082635Y0070878D03*
X0082635Y0070712D03*
X0082635Y0071374D03*
X0082635Y0071401D03*
X0082635Y0071429D03*
X0082635Y0071456D03*
X0080017Y0070409D03*
X0080017Y0070354D03*
X0078170Y0070905D03*
X0078170Y0070933D03*
X0078170Y0070960D03*
X0078170Y0070988D03*
X0078170Y0071015D03*
X0078170Y0071043D03*
X0078170Y0071071D03*
X0078170Y0071098D03*
X0078170Y0071126D03*
X0078170Y0071153D03*
X0078170Y0071181D03*
X0078170Y0071208D03*
X0078170Y0071236D03*
X0078170Y0071263D03*
X0078170Y0071291D03*
X0078170Y0071319D03*
X0078170Y0071346D03*
X0078170Y0071374D03*
X0078170Y0071401D03*
X0078170Y0071429D03*
X0078170Y0071456D03*
X0078170Y0071484D03*
X0078170Y0071512D03*
X0078170Y0071539D03*
X0078170Y0071567D03*
X0078170Y0071594D03*
X0078170Y0071622D03*
X0078170Y0071649D03*
X0078170Y0071677D03*
X0078170Y0071704D03*
X0078170Y0071732D03*
X0078170Y0071760D03*
X0078170Y0071787D03*
X0078170Y0071815D03*
X0078280Y0074295D03*
X0076213Y0074323D03*
X0076241Y0073468D03*
X0076213Y0073441D03*
X0075690Y0073027D03*
X0074394Y0073193D03*
X0074394Y0073220D03*
X0074394Y0073248D03*
X0074394Y0073275D03*
X0074394Y0073303D03*
X0075276Y0074405D03*
X0075194Y0071456D03*
X0075194Y0071429D03*
X0075194Y0071401D03*
X0075194Y0071374D03*
X0075194Y0071346D03*
X0075194Y0071319D03*
X0075194Y0071291D03*
X0075194Y0071263D03*
X0075194Y0071236D03*
X0075194Y0071208D03*
X0075194Y0071181D03*
X0075194Y0071153D03*
X0075194Y0071126D03*
X0075194Y0071098D03*
X0075194Y0071071D03*
X0075194Y0071043D03*
X0075194Y0071015D03*
X0075194Y0070988D03*
X0075194Y0070960D03*
X0075194Y0070933D03*
X0075194Y0070905D03*
X0075194Y0070878D03*
X0075194Y0070850D03*
X0075194Y0070823D03*
X0075194Y0070795D03*
X0075194Y0070767D03*
X0075194Y0070740D03*
X0075194Y0070712D03*
X0074587Y0070712D03*
X0072769Y0070712D03*
X0072769Y0070740D03*
X0072769Y0070767D03*
X0072769Y0070795D03*
X0072769Y0070823D03*
X0072769Y0070850D03*
X0072769Y0070878D03*
X0072769Y0070905D03*
X0072769Y0070933D03*
X0072769Y0070960D03*
X0072769Y0070988D03*
X0072769Y0071015D03*
X0072769Y0071043D03*
X0072769Y0071071D03*
X0072769Y0071098D03*
X0072769Y0071126D03*
X0072769Y0071153D03*
X0072769Y0071181D03*
X0072769Y0071208D03*
X0072769Y0071236D03*
X0072769Y0071263D03*
X0072769Y0071291D03*
X0072769Y0071319D03*
X0072769Y0071346D03*
X0072769Y0071374D03*
X0072769Y0071401D03*
X0072769Y0071429D03*
X0072769Y0071456D03*
X0072769Y0071484D03*
X0072769Y0071512D03*
X0072769Y0071539D03*
X0072769Y0071567D03*
X0072769Y0071594D03*
X0072769Y0071622D03*
X0072769Y0071649D03*
X0072769Y0071677D03*
X0072769Y0071704D03*
X0072769Y0071732D03*
X0072769Y0071760D03*
X0072769Y0071787D03*
X0072769Y0071815D03*
X0072162Y0071456D03*
X0072162Y0071291D03*
X0072162Y0070712D03*
X0070343Y0070712D03*
X0070343Y0070740D03*
X0070343Y0070767D03*
X0070343Y0070795D03*
X0070343Y0070823D03*
X0070343Y0070850D03*
X0070343Y0070878D03*
X0070343Y0071374D03*
X0070343Y0071401D03*
X0070343Y0071429D03*
X0070343Y0071456D03*
X0083324Y0078153D03*
X0084674Y0080082D03*
X0085501Y0080110D03*
X0086245Y0078704D03*
X0086245Y0078677D03*
X0085308Y0084271D03*
X0085280Y0084299D03*
X0084481Y0084326D03*
X0083324Y0084409D03*
X0083324Y0085126D03*
X0084757Y0086228D03*
X0085418Y0085456D03*
X0086245Y0085181D03*
X0082772Y0089590D03*
X0086879Y0089866D03*
X0091564Y0088185D03*
X0078005Y0088763D03*
D23*
X0078019Y0088736D03*
X0078019Y0088708D03*
X0082759Y0089563D03*
X0086893Y0089838D03*
X0084770Y0086283D03*
X0084770Y0086256D03*
X0084467Y0084299D03*
X0086231Y0084492D03*
X0091550Y0088130D03*
X0091550Y0088157D03*
X0086231Y0079834D03*
X0086231Y0078732D03*
X0085074Y0079063D03*
X0083337Y0078181D03*
X0082841Y0074378D03*
X0083833Y0074378D03*
X0083806Y0073358D03*
X0082814Y0073386D03*
X0081436Y0073027D03*
X0081050Y0073661D03*
X0079975Y0071815D03*
X0078184Y0070354D03*
X0076200Y0073413D03*
X0076172Y0074350D03*
X0077247Y0074378D03*
X0084881Y0074405D03*
X0085790Y0074405D03*
X0085818Y0073358D03*
X0086893Y0074378D03*
X0087940Y0074295D03*
X0088877Y0073055D03*
X0091219Y0073358D03*
X0091192Y0074405D03*
X0092294Y0074378D03*
X0093231Y0071732D03*
X0094168Y0071043D03*
D24*
X0091936Y0070988D03*
X0091936Y0071760D03*
X0097420Y0071263D03*
X0083558Y0071787D03*
X0083558Y0070382D03*
X0076117Y0071787D03*
X0082566Y0088102D03*
X0082566Y0088130D03*
X0084770Y0088267D03*
X0084770Y0088295D03*
X0084770Y0088323D03*
X0087168Y0088681D03*
X0089924Y0088047D03*
D25*
X0091522Y0088047D03*
X0086893Y0089811D03*
X0082759Y0089508D03*
X0082759Y0089480D03*
X0084770Y0086366D03*
X0084770Y0086338D03*
X0083365Y0085098D03*
X0083365Y0084464D03*
X0084440Y0084271D03*
X0085349Y0084216D03*
X0085542Y0080138D03*
X0086204Y0079807D03*
X0086204Y0078815D03*
X0084633Y0080110D03*
X0083365Y0078263D03*
X0083778Y0074405D03*
X0082869Y0074405D03*
X0084936Y0074433D03*
X0085763Y0073330D03*
X0090723Y0073027D03*
X0091164Y0073330D03*
X0091137Y0074433D03*
X0092322Y0074405D03*
X0093286Y0074350D03*
X0093259Y0071704D03*
X0094168Y0071071D03*
X0095078Y0071704D03*
X0079948Y0071760D03*
X0078211Y0070382D03*
X0076117Y0073358D03*
X0075263Y0073330D03*
X0076144Y0074378D03*
X0077274Y0074405D03*
X0078239Y0074350D03*
X0078046Y0088653D03*
D26*
X0078060Y0088626D03*
X0083379Y0084492D03*
X0084426Y0084244D03*
X0085363Y0084189D03*
X0086190Y0084547D03*
X0086190Y0085153D03*
X0085473Y0085484D03*
X0084757Y0086393D03*
X0084040Y0085429D03*
X0086906Y0089756D03*
X0086906Y0089783D03*
X0090020Y0087165D03*
X0091509Y0087992D03*
X0091509Y0088019D03*
X0083379Y0080000D03*
X0085060Y0079008D03*
X0086190Y0078842D03*
X0083379Y0078291D03*
X0085335Y0074708D03*
X0085749Y0074433D03*
X0087898Y0074350D03*
X0090324Y0074433D03*
X0093272Y0071677D03*
X0082910Y0073330D03*
X0078225Y0070409D03*
D27*
X0076117Y0070437D03*
X0076117Y0071732D03*
X0073692Y0070437D03*
X0071404Y0071236D03*
X0071101Y0070933D03*
X0071267Y0070437D03*
X0071267Y0071732D03*
X0083558Y0071732D03*
X0083558Y0070437D03*
X0087774Y0071181D03*
X0091853Y0071153D03*
X0091853Y0071126D03*
X0091853Y0071594D03*
X0091853Y0071622D03*
X0097034Y0070933D03*
X0097337Y0071236D03*
X0097172Y0071732D03*
X0097172Y0070437D03*
X0084991Y0078126D03*
X0082538Y0087937D03*
X0080223Y0088075D03*
X0084770Y0088543D03*
X0084770Y0088571D03*
X0087196Y0088543D03*
X0087196Y0088515D03*
D28*
X0086906Y0089728D03*
X0084757Y0086504D03*
X0084757Y0086476D03*
X0083406Y0085071D03*
X0083406Y0084519D03*
X0085391Y0084161D03*
X0086162Y0084602D03*
X0090020Y0087193D03*
X0091481Y0087909D03*
X0082745Y0089397D03*
X0082745Y0089425D03*
X0078087Y0088543D03*
X0085060Y0078980D03*
X0085060Y0078952D03*
X0086162Y0078925D03*
X0083406Y0078346D03*
X0087237Y0074681D03*
X0092639Y0074681D03*
X0093300Y0071649D03*
X0093769Y0071346D03*
X0093824Y0071319D03*
X0094513Y0071319D03*
X0094568Y0071346D03*
X0094595Y0071374D03*
X0095036Y0071649D03*
X0081725Y0074075D03*
X0079906Y0071704D03*
X0078253Y0070437D03*
X0077591Y0074681D03*
D29*
X0076117Y0071704D03*
X0076117Y0070464D03*
X0073692Y0070464D03*
X0071267Y0070464D03*
X0071377Y0071208D03*
X0083558Y0071704D03*
X0083558Y0070464D03*
X0084991Y0078098D03*
X0097062Y0070960D03*
X0097172Y0070464D03*
X0089924Y0088212D03*
X0087196Y0088488D03*
X0084770Y0088626D03*
X0084770Y0088653D03*
X0082538Y0087882D03*
X0080223Y0088102D03*
X0080223Y0088130D03*
D30*
X0078101Y0088515D03*
X0083420Y0084547D03*
X0084385Y0084189D03*
X0085404Y0084134D03*
X0085542Y0085512D03*
X0084770Y0086531D03*
X0083999Y0085456D03*
X0086920Y0089700D03*
X0090007Y0087220D03*
X0091467Y0087854D03*
X0091467Y0087882D03*
X0083420Y0079972D03*
X0083420Y0078374D03*
X0086148Y0078952D03*
X0086148Y0078980D03*
X0081188Y0073744D03*
X0081463Y0073055D03*
X0078184Y0074405D03*
X0075676Y0073055D03*
X0078267Y0070464D03*
X0093314Y0071622D03*
X0094168Y0071098D03*
X0093231Y0074405D03*
D31*
X0097186Y0071677D03*
X0097241Y0071153D03*
X0097213Y0071126D03*
X0097186Y0071098D03*
X0097158Y0071043D03*
X0097186Y0070492D03*
X0084977Y0078043D03*
X0076103Y0071677D03*
X0076103Y0070492D03*
X0073678Y0070492D03*
X0071253Y0070492D03*
X0071198Y0071015D03*
X0071225Y0071043D03*
X0071253Y0071071D03*
X0071280Y0071126D03*
X0071253Y0071677D03*
X0082524Y0087771D03*
X0082524Y0087799D03*
X0084784Y0088763D03*
X0089910Y0088267D03*
D32*
X0087223Y0088433D03*
X0084770Y0088708D03*
X0084770Y0088736D03*
X0080223Y0088157D03*
X0084991Y0078071D03*
X0083558Y0071677D03*
X0083558Y0070492D03*
X0071322Y0071153D03*
X0097117Y0071015D03*
D33*
X0094995Y0071594D03*
X0094168Y0071126D03*
X0093341Y0071594D03*
X0090723Y0073055D03*
X0085322Y0073055D03*
X0079865Y0071649D03*
X0078294Y0070492D03*
X0077578Y0074653D03*
X0083448Y0078429D03*
X0083448Y0079945D03*
X0086121Y0079035D03*
X0085432Y0084106D03*
X0086121Y0084657D03*
X0084357Y0084134D03*
X0083448Y0084575D03*
X0083448Y0085043D03*
X0083448Y0087055D03*
X0083448Y0087082D03*
X0083448Y0087110D03*
X0084770Y0086614D03*
X0082731Y0089315D03*
X0080333Y0087165D03*
X0078129Y0088433D03*
X0078129Y0088460D03*
X0090007Y0087275D03*
X0090007Y0087248D03*
X0091440Y0087771D03*
D34*
X0089896Y0088295D03*
X0087223Y0088378D03*
X0087223Y0088405D03*
X0084770Y0088791D03*
X0084770Y0088819D03*
X0082511Y0087744D03*
X0080223Y0088185D03*
X0083558Y0071649D03*
X0083558Y0070519D03*
X0076117Y0070519D03*
X0076117Y0071649D03*
X0073692Y0070519D03*
X0071267Y0070519D03*
X0071267Y0071098D03*
X0071267Y0071649D03*
X0097172Y0071649D03*
X0097172Y0071071D03*
X0097172Y0070519D03*
D35*
X0093355Y0071567D03*
X0092639Y0074653D03*
X0090737Y0074681D03*
X0087237Y0074653D03*
X0085335Y0074681D03*
X0083324Y0074681D03*
X0081394Y0074681D03*
X0081229Y0073771D03*
X0078308Y0070519D03*
X0083461Y0078456D03*
X0083461Y0078484D03*
X0085060Y0078897D03*
X0086107Y0079063D03*
X0086107Y0079090D03*
X0086107Y0079724D03*
X0084536Y0080193D03*
X0085446Y0084078D03*
X0086107Y0084685D03*
X0083957Y0085484D03*
X0083461Y0084602D03*
X0083461Y0086972D03*
X0083461Y0087000D03*
X0083461Y0087027D03*
X0084757Y0086669D03*
X0084757Y0086641D03*
X0086107Y0087082D03*
X0086107Y0087110D03*
X0086107Y0087137D03*
X0086934Y0089618D03*
X0086934Y0089645D03*
X0082717Y0089287D03*
X0080320Y0087193D03*
X0078143Y0088405D03*
X0091426Y0087744D03*
X0091426Y0087716D03*
D36*
X0087237Y0088350D03*
X0084784Y0088846D03*
X0080209Y0088212D03*
X0084977Y0078015D03*
X0076103Y0071622D03*
X0076103Y0070547D03*
X0073678Y0070547D03*
X0071253Y0070547D03*
X0071253Y0071622D03*
X0097186Y0071622D03*
X0097186Y0070547D03*
D37*
X0084991Y0077988D03*
X0083558Y0071622D03*
X0083558Y0071594D03*
X0083558Y0070575D03*
X0083558Y0070547D03*
X0082511Y0087689D03*
X0082511Y0087716D03*
X0084770Y0088874D03*
X0084770Y0088901D03*
X0084770Y0088929D03*
X0089896Y0088323D03*
D38*
X0090007Y0087303D03*
X0091412Y0087661D03*
X0091412Y0087689D03*
X0086948Y0089590D03*
X0086093Y0087055D03*
X0086093Y0087027D03*
X0086093Y0087000D03*
X0084770Y0086697D03*
X0083475Y0086889D03*
X0083475Y0086917D03*
X0083475Y0086945D03*
X0083475Y0084630D03*
X0084330Y0084106D03*
X0085459Y0084051D03*
X0085597Y0085539D03*
X0082731Y0089260D03*
X0078156Y0088378D03*
X0085625Y0080220D03*
X0086093Y0079118D03*
X0083475Y0078512D03*
X0081629Y0074019D03*
X0079837Y0071622D03*
X0079148Y0071126D03*
X0078873Y0070933D03*
X0078322Y0070547D03*
X0075648Y0074681D03*
X0088877Y0073138D03*
X0094967Y0071567D03*
D39*
X0097186Y0071567D03*
X0097186Y0071594D03*
X0097186Y0070602D03*
X0097186Y0070575D03*
X0084977Y0077960D03*
X0076103Y0071594D03*
X0076103Y0071567D03*
X0076103Y0070602D03*
X0076103Y0070575D03*
X0073678Y0070575D03*
X0073678Y0070602D03*
X0071253Y0070602D03*
X0071253Y0070575D03*
X0071253Y0071567D03*
X0071253Y0071594D03*
X0080209Y0088240D03*
X0080209Y0088267D03*
X0082497Y0087661D03*
X0087237Y0088323D03*
X0089910Y0088350D03*
D40*
X0090007Y0087330D03*
X0091385Y0087578D03*
X0091385Y0087606D03*
X0086948Y0089563D03*
X0086066Y0086889D03*
X0086066Y0086862D03*
X0086066Y0086834D03*
X0084770Y0086779D03*
X0083503Y0086779D03*
X0083503Y0086752D03*
X0083503Y0086724D03*
X0083503Y0084657D03*
X0085487Y0084023D03*
X0086066Y0084740D03*
X0085652Y0080248D03*
X0086066Y0079200D03*
X0086066Y0079173D03*
X0085046Y0078842D03*
X0084495Y0080220D03*
X0083503Y0078567D03*
X0081574Y0073992D03*
X0081326Y0073826D03*
X0081463Y0073082D03*
X0085322Y0073082D03*
X0088877Y0073165D03*
X0088904Y0073193D03*
X0088904Y0073220D03*
X0088932Y0073248D03*
X0088959Y0073303D03*
X0090723Y0073082D03*
X0094168Y0071153D03*
X0078349Y0070575D03*
X0080306Y0087248D03*
X0078184Y0088295D03*
X0078184Y0088323D03*
D41*
X0082511Y0087634D03*
X0084770Y0088956D03*
X0084770Y0088984D03*
X0084770Y0089012D03*
X0087251Y0088295D03*
X0089896Y0088378D03*
X0083558Y0071567D03*
X0083558Y0071539D03*
X0083558Y0071512D03*
X0083558Y0070657D03*
X0083558Y0070630D03*
X0083558Y0070602D03*
X0076117Y0070630D03*
X0076117Y0071539D03*
X0073692Y0070630D03*
X0071267Y0070630D03*
X0071267Y0071539D03*
X0097172Y0071539D03*
X0097172Y0070630D03*
D42*
X0094926Y0071512D03*
X0093410Y0071512D03*
X0090737Y0074653D03*
X0088946Y0073275D03*
X0085335Y0074653D03*
X0083324Y0074653D03*
X0081532Y0073964D03*
X0081367Y0073854D03*
X0081394Y0074653D03*
X0079796Y0071567D03*
X0078363Y0070602D03*
X0083517Y0078594D03*
X0086052Y0079228D03*
X0085501Y0083996D03*
X0086052Y0084767D03*
X0084288Y0084051D03*
X0083517Y0084685D03*
X0083517Y0086641D03*
X0083517Y0086669D03*
X0083517Y0086697D03*
X0084757Y0086807D03*
X0084757Y0086834D03*
X0086052Y0086807D03*
X0086052Y0086779D03*
X0086052Y0086752D03*
X0086961Y0089535D03*
X0082717Y0089177D03*
X0078198Y0088267D03*
X0089993Y0087358D03*
X0091371Y0087523D03*
X0091371Y0087551D03*
D43*
X0091343Y0087468D03*
X0091343Y0087441D03*
X0089993Y0087413D03*
X0089993Y0087386D03*
X0086961Y0089480D03*
X0086024Y0086641D03*
X0086024Y0086614D03*
X0086024Y0086586D03*
X0084757Y0086917D03*
X0083544Y0086531D03*
X0083544Y0086504D03*
X0083544Y0086476D03*
X0083544Y0086449D03*
X0083544Y0084712D03*
X0084261Y0083996D03*
X0086024Y0084795D03*
X0086024Y0085071D03*
X0080320Y0087303D03*
X0078225Y0088212D03*
X0086024Y0079311D03*
X0083544Y0078649D03*
X0081450Y0073909D03*
X0081477Y0073110D03*
X0083324Y0073110D03*
X0079769Y0071512D03*
X0078391Y0070630D03*
X0075690Y0073110D03*
D44*
X0076103Y0071512D03*
X0076103Y0071484D03*
X0076103Y0070685D03*
X0076103Y0070657D03*
X0073678Y0070657D03*
X0073678Y0070685D03*
X0071253Y0070685D03*
X0071253Y0070657D03*
X0071253Y0071484D03*
X0071253Y0071512D03*
X0083544Y0071484D03*
X0083544Y0070685D03*
X0084977Y0077933D03*
X0082497Y0087606D03*
X0080209Y0088295D03*
X0087265Y0088267D03*
X0097186Y0071512D03*
X0097186Y0071484D03*
X0097186Y0070685D03*
X0097186Y0070657D03*
D45*
X0094885Y0071456D03*
X0093452Y0071456D03*
X0092625Y0074571D03*
X0090723Y0074626D03*
X0087251Y0074571D03*
X0085322Y0073110D03*
X0078404Y0070657D03*
X0077578Y0074571D03*
X0083558Y0078677D03*
X0085046Y0078787D03*
X0086011Y0079338D03*
X0086011Y0079641D03*
X0083558Y0079862D03*
X0085542Y0083941D03*
X0086011Y0084823D03*
X0085707Y0085594D03*
X0086011Y0086504D03*
X0086011Y0086531D03*
X0086011Y0086559D03*
X0084770Y0086945D03*
X0084770Y0086972D03*
X0083558Y0086421D03*
X0083558Y0086393D03*
X0083558Y0086366D03*
X0083558Y0084740D03*
X0080306Y0087330D03*
X0078239Y0088157D03*
X0078239Y0088185D03*
X0082704Y0089067D03*
X0082704Y0089094D03*
X0086975Y0089452D03*
X0091330Y0087413D03*
X0091330Y0087386D03*
D46*
X0089924Y0088019D03*
X0087141Y0088736D03*
X0084770Y0088240D03*
X0084770Y0088212D03*
X0084770Y0088185D03*
X0080251Y0087909D03*
X0083971Y0081433D03*
X0083971Y0081405D03*
X0083971Y0081378D03*
X0083971Y0081350D03*
X0083971Y0081323D03*
X0083971Y0081295D03*
X0083971Y0081267D03*
X0083971Y0081240D03*
X0083971Y0081212D03*
X0083971Y0081185D03*
X0083971Y0081157D03*
X0083971Y0081130D03*
X0083971Y0081102D03*
X0083971Y0081075D03*
X0083971Y0081047D03*
X0083971Y0081019D03*
X0083971Y0080992D03*
X0083971Y0080964D03*
X0083971Y0080937D03*
X0083971Y0080909D03*
X0083971Y0080882D03*
X0089814Y0070685D03*
D47*
X0094168Y0071208D03*
X0094857Y0071429D03*
X0092625Y0074543D03*
X0087251Y0074543D03*
X0085046Y0078760D03*
X0085983Y0079421D03*
X0085983Y0079614D03*
X0083585Y0078760D03*
X0084219Y0083941D03*
X0085570Y0083886D03*
X0085983Y0084850D03*
X0085983Y0085043D03*
X0085983Y0086338D03*
X0085983Y0086366D03*
X0085983Y0086393D03*
X0084770Y0087027D03*
X0084770Y0087055D03*
X0083585Y0086256D03*
X0083585Y0086228D03*
X0083585Y0086200D03*
X0080306Y0087358D03*
X0078267Y0088102D03*
X0091302Y0087330D03*
X0091302Y0087303D03*
X0075648Y0074626D03*
X0075676Y0073138D03*
X0078432Y0070685D03*
X0079727Y0071456D03*
D48*
X0078446Y0070712D03*
X0081477Y0073138D03*
X0083324Y0073138D03*
X0085335Y0074598D03*
X0087237Y0074515D03*
X0089139Y0074515D03*
X0089139Y0074488D03*
X0089139Y0074460D03*
X0089139Y0074543D03*
X0089139Y0074571D03*
X0089139Y0074598D03*
X0089139Y0074626D03*
X0089139Y0074653D03*
X0089139Y0074681D03*
X0089139Y0074708D03*
X0090709Y0073138D03*
X0092639Y0074515D03*
X0093493Y0071401D03*
X0094843Y0071401D03*
X0085969Y0079449D03*
X0085969Y0079476D03*
X0085749Y0080330D03*
X0084371Y0080303D03*
X0083599Y0079834D03*
X0083599Y0078787D03*
X0085032Y0078732D03*
X0077591Y0074515D03*
X0083599Y0084795D03*
X0083765Y0085594D03*
X0083599Y0086118D03*
X0083599Y0086145D03*
X0083599Y0086173D03*
X0084757Y0087082D03*
X0085969Y0086311D03*
X0085969Y0086283D03*
X0085969Y0086256D03*
X0085969Y0084878D03*
X0089993Y0087468D03*
X0091288Y0087275D03*
X0091288Y0087248D03*
X0086989Y0089397D03*
X0082690Y0089012D03*
X0082690Y0088984D03*
X0080292Y0087386D03*
X0078280Y0088075D03*
D49*
X0078294Y0088047D03*
X0078294Y0088019D03*
X0082676Y0088956D03*
X0084770Y0087137D03*
X0084770Y0087110D03*
X0085956Y0086228D03*
X0085956Y0086200D03*
X0085956Y0086173D03*
X0085763Y0085622D03*
X0085956Y0084905D03*
X0085597Y0083858D03*
X0084192Y0083913D03*
X0083613Y0084823D03*
X0083613Y0084933D03*
X0083613Y0086035D03*
X0083613Y0086063D03*
X0083613Y0086090D03*
X0087003Y0089342D03*
X0087003Y0089370D03*
X0089979Y0087496D03*
X0091274Y0087220D03*
X0085956Y0079504D03*
X0085046Y0078704D03*
X0083613Y0078815D03*
X0083337Y0074598D03*
X0081381Y0074598D03*
X0085322Y0073138D03*
X0079700Y0071429D03*
X0078459Y0070740D03*
X0075648Y0074598D03*
X0090723Y0074598D03*
D50*
X0090723Y0074571D03*
X0092625Y0074460D03*
X0094168Y0071236D03*
X0087251Y0074460D03*
X0085349Y0074571D03*
X0085322Y0073165D03*
X0081491Y0073165D03*
X0081463Y0074460D03*
X0081436Y0074488D03*
X0081436Y0074515D03*
X0081408Y0074543D03*
X0077578Y0074460D03*
X0078487Y0070767D03*
X0085046Y0078677D03*
X0085928Y0079559D03*
X0083641Y0078870D03*
X0084164Y0083858D03*
X0083641Y0084850D03*
X0083723Y0085622D03*
X0083641Y0085870D03*
X0083641Y0085897D03*
X0083641Y0085925D03*
X0084770Y0087193D03*
X0084770Y0087220D03*
X0085928Y0086063D03*
X0085928Y0086035D03*
X0085928Y0086008D03*
X0085928Y0085015D03*
X0085928Y0084933D03*
X0089979Y0087551D03*
X0087003Y0089315D03*
X0082676Y0088901D03*
X0080306Y0087441D03*
X0078322Y0087964D03*
D51*
X0078335Y0087937D03*
X0080292Y0087468D03*
X0082662Y0088874D03*
X0084757Y0087248D03*
X0085914Y0085980D03*
X0085914Y0085952D03*
X0085914Y0085925D03*
X0085914Y0084960D03*
X0085639Y0083803D03*
X0083654Y0084878D03*
X0083654Y0084905D03*
X0083654Y0085787D03*
X0083654Y0085815D03*
X0083654Y0085842D03*
X0087017Y0089287D03*
X0083654Y0078897D03*
X0085032Y0078649D03*
X0083324Y0074571D03*
X0079658Y0071374D03*
X0078501Y0070795D03*
X0090709Y0073165D03*
D52*
X0090709Y0073193D03*
X0085308Y0073193D03*
X0085335Y0074543D03*
X0083324Y0074543D03*
X0081505Y0073193D03*
X0081670Y0071263D03*
X0081670Y0070905D03*
X0079631Y0071319D03*
X0078528Y0070823D03*
X0085032Y0078622D03*
X0083682Y0078952D03*
X0083682Y0078980D03*
X0084123Y0083803D03*
X0085666Y0083748D03*
X0085859Y0085677D03*
X0085887Y0085760D03*
X0085887Y0085787D03*
X0085887Y0085815D03*
X0084757Y0087330D03*
X0083682Y0085649D03*
X0080292Y0087496D03*
X0078363Y0087854D03*
X0082662Y0088791D03*
X0082662Y0088819D03*
D53*
X0084770Y0087386D03*
X0084770Y0087358D03*
X0085873Y0085732D03*
X0085873Y0085704D03*
X0087030Y0089204D03*
X0087030Y0089232D03*
X0089979Y0087606D03*
X0085845Y0080413D03*
X0084274Y0080386D03*
X0083696Y0079008D03*
X0081519Y0073220D03*
X0081656Y0071236D03*
X0081656Y0071208D03*
X0081656Y0071181D03*
X0081656Y0071153D03*
X0081656Y0071126D03*
X0081656Y0071098D03*
X0081656Y0071071D03*
X0081656Y0071043D03*
X0081656Y0071015D03*
X0081656Y0070988D03*
X0081656Y0070960D03*
X0081656Y0070933D03*
X0078542Y0070850D03*
X0075676Y0073220D03*
X0075648Y0074543D03*
X0080278Y0087523D03*
X0078377Y0087826D03*
D54*
X0078404Y0087771D03*
X0078404Y0087744D03*
X0080278Y0087578D03*
X0080278Y0087551D03*
X0082648Y0088708D03*
X0082648Y0088736D03*
X0084770Y0087468D03*
X0084770Y0087441D03*
X0084109Y0083775D03*
X0085707Y0083693D03*
X0085735Y0083665D03*
X0085845Y0081323D03*
X0085845Y0081295D03*
X0085845Y0081267D03*
X0085845Y0081240D03*
X0085845Y0081212D03*
X0085845Y0081185D03*
X0085845Y0081157D03*
X0085845Y0081130D03*
X0085845Y0081102D03*
X0085845Y0081075D03*
X0085845Y0081047D03*
X0085845Y0081019D03*
X0085845Y0080992D03*
X0085845Y0080964D03*
X0085845Y0080937D03*
X0085845Y0080909D03*
X0085845Y0080882D03*
X0085845Y0080854D03*
X0085845Y0080826D03*
X0085845Y0080799D03*
X0085845Y0080771D03*
X0083723Y0079063D03*
X0085322Y0073220D03*
X0081519Y0073248D03*
X0078570Y0070878D03*
X0075676Y0073248D03*
X0075648Y0074515D03*
X0094168Y0071291D03*
D55*
X0094168Y0070905D03*
X0090227Y0073468D03*
X0088629Y0073386D03*
X0084826Y0073468D03*
X0081987Y0073496D03*
X0083117Y0077685D03*
X0084881Y0079917D03*
X0086452Y0078126D03*
X0083117Y0084106D03*
X0083117Y0085263D03*
X0084660Y0084602D03*
X0085074Y0084602D03*
X0084770Y0085594D03*
X0082841Y0090031D03*
X0077798Y0089287D03*
X0077798Y0089260D03*
X0091770Y0088901D03*
X0091770Y0088874D03*
X0075180Y0073523D03*
D56*
X0083861Y0079366D03*
X0085019Y0078401D03*
X0092074Y0070905D03*
X0078542Y0087413D03*
X0084770Y0087854D03*
X0084770Y0087882D03*
X0084770Y0087909D03*
X0089952Y0087854D03*
D57*
X0089993Y0087523D03*
X0091261Y0087193D03*
X0091261Y0087165D03*
X0085942Y0086145D03*
X0085942Y0086118D03*
X0085942Y0086090D03*
X0084757Y0087165D03*
X0083627Y0086008D03*
X0083627Y0085980D03*
X0083627Y0085952D03*
X0084178Y0083886D03*
X0085611Y0083830D03*
X0085776Y0080358D03*
X0085942Y0079586D03*
X0085942Y0079531D03*
X0084343Y0080330D03*
X0083627Y0079807D03*
X0083627Y0078842D03*
X0081394Y0074571D03*
X0083324Y0073165D03*
X0079686Y0071401D03*
X0077591Y0074488D03*
X0075690Y0073165D03*
X0087237Y0074488D03*
X0092639Y0074488D03*
X0087761Y0070905D03*
X0080292Y0087413D03*
X0078308Y0087992D03*
X0082690Y0088929D03*
D58*
X0084770Y0087661D03*
X0084770Y0087634D03*
X0084770Y0087606D03*
X0087058Y0089067D03*
X0085790Y0083582D03*
X0085790Y0083555D03*
X0085790Y0083527D03*
X0085790Y0083500D03*
X0085790Y0083472D03*
X0085790Y0083445D03*
X0085790Y0083417D03*
X0085790Y0083389D03*
X0085790Y0083362D03*
X0085790Y0083334D03*
X0085790Y0083307D03*
X0085790Y0083279D03*
X0085790Y0083252D03*
X0085790Y0083224D03*
X0085790Y0083197D03*
X0085790Y0083169D03*
X0085790Y0083141D03*
X0085790Y0083114D03*
X0084054Y0083693D03*
X0083778Y0079697D03*
X0083778Y0079200D03*
X0083778Y0079173D03*
X0085019Y0078512D03*
X0085322Y0073303D03*
X0085322Y0073275D03*
X0083337Y0073303D03*
X0083089Y0071236D03*
X0083089Y0071208D03*
X0083089Y0071181D03*
X0083089Y0071153D03*
X0083089Y0071126D03*
X0083089Y0071098D03*
X0083089Y0071071D03*
X0083089Y0071043D03*
X0083089Y0071015D03*
X0083089Y0070988D03*
X0083089Y0070960D03*
X0083089Y0070933D03*
X0083089Y0070905D03*
X0075676Y0073303D03*
X0090723Y0073303D03*
X0078459Y0087606D03*
X0078459Y0087634D03*
X0080278Y0087634D03*
D59*
X0080320Y0087220D03*
X0078170Y0088350D03*
X0082717Y0089204D03*
X0082717Y0089232D03*
X0083489Y0086862D03*
X0083489Y0086834D03*
X0083489Y0086807D03*
X0084757Y0086752D03*
X0084757Y0086724D03*
X0086080Y0086917D03*
X0086080Y0086945D03*
X0086080Y0086972D03*
X0086080Y0085098D03*
X0086080Y0084712D03*
X0084316Y0084078D03*
X0083489Y0085015D03*
X0083902Y0085512D03*
X0083489Y0079917D03*
X0085060Y0078870D03*
X0086080Y0079145D03*
X0086080Y0079697D03*
X0083489Y0078539D03*
X0087237Y0074626D03*
X0083324Y0073082D03*
X0081284Y0073799D03*
X0079824Y0071594D03*
X0079355Y0071263D03*
X0079300Y0071236D03*
X0079272Y0071208D03*
X0079217Y0071181D03*
X0079190Y0071153D03*
X0079107Y0071098D03*
X0079080Y0071071D03*
X0079024Y0071043D03*
X0078997Y0071015D03*
X0078942Y0070988D03*
X0078914Y0070960D03*
X0078831Y0070905D03*
X0075690Y0073082D03*
X0077591Y0074626D03*
X0092639Y0074626D03*
X0093383Y0071539D03*
X0094954Y0071539D03*
X0091398Y0087634D03*
D60*
X0091743Y0088791D03*
X0086424Y0084216D03*
X0084770Y0085677D03*
X0084853Y0079945D03*
X0086424Y0080000D03*
X0086424Y0078208D03*
X0086424Y0078181D03*
X0083144Y0077767D03*
X0083144Y0077740D03*
X0084826Y0073441D03*
X0088629Y0073358D03*
X0088877Y0073000D03*
X0090227Y0073441D03*
X0094168Y0070933D03*
X0075180Y0073496D03*
X0074408Y0073468D03*
X0074408Y0073000D03*
X0077826Y0089204D03*
D61*
X0078625Y0087220D03*
X0078625Y0087193D03*
X0080251Y0087882D03*
X0082593Y0088240D03*
X0084770Y0088157D03*
X0084770Y0088130D03*
X0084770Y0088102D03*
X0087141Y0088763D03*
X0083944Y0082618D03*
X0083944Y0082590D03*
X0083944Y0082563D03*
X0083944Y0082535D03*
X0083944Y0082508D03*
X0083944Y0082480D03*
X0083944Y0082452D03*
X0083944Y0082425D03*
X0083944Y0082397D03*
X0083944Y0082370D03*
X0083944Y0082342D03*
X0083944Y0082315D03*
X0083944Y0082287D03*
X0083944Y0082260D03*
X0083944Y0082232D03*
X0083944Y0082204D03*
X0083944Y0082177D03*
X0083944Y0082149D03*
X0083944Y0082122D03*
X0083944Y0082094D03*
X0083944Y0082067D03*
X0083944Y0082039D03*
X0084026Y0080578D03*
X0083944Y0079559D03*
X0085349Y0073964D03*
X0085349Y0073937D03*
X0085349Y0073909D03*
X0085349Y0073882D03*
X0085349Y0073854D03*
X0085349Y0073826D03*
X0085349Y0073799D03*
X0085349Y0073771D03*
X0085349Y0073744D03*
X0090751Y0073744D03*
X0090751Y0073771D03*
X0090751Y0073799D03*
X0090751Y0073826D03*
X0090751Y0073854D03*
X0090751Y0073882D03*
X0090751Y0073909D03*
X0090751Y0073937D03*
X0090751Y0073964D03*
X0090751Y0073992D03*
X0091991Y0071815D03*
X0091991Y0070933D03*
D62*
X0087761Y0070933D03*
X0083792Y0079228D03*
X0084040Y0083665D03*
X0078473Y0087578D03*
X0080265Y0087661D03*
X0082635Y0088571D03*
X0082635Y0088598D03*
X0087072Y0089039D03*
X0089965Y0087744D03*
D63*
X0091688Y0088598D03*
X0091688Y0088626D03*
X0086369Y0084299D03*
X0084770Y0085842D03*
X0084274Y0085291D03*
X0083200Y0085208D03*
X0083200Y0084216D03*
X0085377Y0080000D03*
X0085074Y0079228D03*
X0086369Y0079945D03*
X0086369Y0078346D03*
X0083200Y0077878D03*
X0081050Y0074405D03*
X0085349Y0073000D03*
X0090723Y0073000D03*
X0094168Y0070960D03*
X0077881Y0089067D03*
X0082814Y0089866D03*
D64*
X0082607Y0088405D03*
X0082607Y0088378D03*
X0080265Y0087771D03*
X0078556Y0087386D03*
X0083957Y0083555D03*
X0084095Y0080523D03*
X0083875Y0079614D03*
X0083875Y0079393D03*
X0092060Y0071842D03*
X0087761Y0070960D03*
X0089938Y0087882D03*
X0087099Y0088901D03*
D65*
X0089910Y0088185D03*
X0084784Y0088598D03*
X0082552Y0087909D03*
X0087761Y0071263D03*
X0087761Y0071236D03*
X0087761Y0071208D03*
X0091839Y0071208D03*
X0091839Y0071181D03*
X0091839Y0071236D03*
X0091839Y0071263D03*
X0091839Y0071484D03*
X0091839Y0071512D03*
X0091839Y0071539D03*
X0091839Y0071567D03*
X0097296Y0071208D03*
X0071143Y0070960D03*
D66*
X0071170Y0070988D03*
X0071335Y0071181D03*
X0071253Y0071704D03*
X0082524Y0087826D03*
X0082524Y0087854D03*
X0084784Y0088681D03*
X0087209Y0088460D03*
X0089910Y0088240D03*
X0097186Y0071704D03*
X0097269Y0071181D03*
X0097103Y0070988D03*
D67*
X0094182Y0070988D03*
X0086328Y0078456D03*
X0085087Y0079173D03*
X0086328Y0079917D03*
X0083241Y0080110D03*
X0083241Y0077960D03*
X0086328Y0084354D03*
X0084757Y0085952D03*
X0084757Y0085980D03*
X0084233Y0085319D03*
X0083241Y0085181D03*
X0082800Y0089756D03*
X0082800Y0089783D03*
X0077922Y0088956D03*
X0091646Y0088488D03*
X0091646Y0088460D03*
D68*
X0089924Y0088130D03*
X0084770Y0088460D03*
X0084770Y0088488D03*
X0084991Y0078153D03*
X0081326Y0071539D03*
X0091881Y0071677D03*
X0091881Y0071071D03*
D69*
X0087761Y0071071D03*
X0085005Y0078208D03*
X0084784Y0088350D03*
X0087154Y0088653D03*
X0089938Y0088075D03*
X0080237Y0087992D03*
X0080237Y0087964D03*
D70*
X0080237Y0088047D03*
X0082552Y0087992D03*
X0082552Y0087964D03*
X0084784Y0088515D03*
X0087182Y0088571D03*
X0089910Y0088157D03*
X0091867Y0071649D03*
X0091867Y0071098D03*
X0087761Y0071126D03*
X0087761Y0071153D03*
D71*
X0087251Y0074598D03*
X0092625Y0074598D03*
X0093424Y0071484D03*
X0094168Y0071181D03*
X0094912Y0071484D03*
X0086038Y0079256D03*
X0086038Y0079283D03*
X0086038Y0079669D03*
X0085680Y0080275D03*
X0084467Y0080248D03*
X0083530Y0079889D03*
X0085046Y0078815D03*
X0083530Y0078622D03*
X0081491Y0073937D03*
X0081408Y0073882D03*
X0079782Y0071539D03*
X0077578Y0074598D03*
X0075648Y0074653D03*
X0084274Y0084023D03*
X0083530Y0084988D03*
X0083861Y0085539D03*
X0083530Y0086559D03*
X0083530Y0086586D03*
X0083530Y0086614D03*
X0084770Y0086862D03*
X0084770Y0086889D03*
X0086038Y0086724D03*
X0086038Y0086697D03*
X0086038Y0086669D03*
X0085652Y0085567D03*
X0085515Y0083968D03*
X0080306Y0087275D03*
X0078211Y0088240D03*
X0082704Y0089122D03*
X0082704Y0089149D03*
X0086975Y0089508D03*
X0091357Y0087496D03*
D72*
X0089979Y0087578D03*
X0087030Y0089260D03*
X0084770Y0087303D03*
X0084770Y0087275D03*
X0085900Y0085897D03*
X0085900Y0085870D03*
X0085900Y0085842D03*
X0085818Y0085649D03*
X0085900Y0084988D03*
X0085652Y0083775D03*
X0084137Y0083830D03*
X0083668Y0085677D03*
X0083668Y0085704D03*
X0083668Y0085732D03*
X0083668Y0085760D03*
X0082676Y0088846D03*
X0078349Y0087909D03*
X0078349Y0087882D03*
X0084302Y0080358D03*
X0083668Y0079779D03*
X0083668Y0078925D03*
X0085818Y0080386D03*
X0090723Y0074543D03*
X0094168Y0071263D03*
X0083337Y0073193D03*
X0079644Y0071346D03*
X0075676Y0073193D03*
X0075648Y0074571D03*
D73*
X0083324Y0074460D03*
X0083324Y0073275D03*
X0085335Y0074460D03*
X0083103Y0071263D03*
X0090709Y0073275D03*
X0090737Y0074460D03*
X0083765Y0079145D03*
X0084206Y0080441D03*
X0085804Y0082535D03*
X0085804Y0082563D03*
X0085804Y0082590D03*
X0085804Y0082618D03*
X0085804Y0082645D03*
X0085804Y0082673D03*
X0085804Y0082700D03*
X0085804Y0082728D03*
X0085804Y0082756D03*
X0085804Y0082783D03*
X0085804Y0082811D03*
X0085804Y0082838D03*
X0085804Y0082866D03*
X0085804Y0082893D03*
X0085804Y0082921D03*
X0085804Y0082949D03*
X0085804Y0082976D03*
X0085804Y0083004D03*
X0085804Y0083031D03*
X0085804Y0083059D03*
X0085804Y0083086D03*
X0085776Y0083610D03*
X0084757Y0087578D03*
X0082635Y0088626D03*
X0078446Y0087661D03*
X0087072Y0089094D03*
X0089965Y0087716D03*
D74*
X0089965Y0087634D03*
X0087044Y0089177D03*
X0084757Y0087413D03*
X0082662Y0088763D03*
X0078391Y0087799D03*
X0085694Y0083720D03*
X0085859Y0080744D03*
X0085859Y0080716D03*
X0085859Y0080689D03*
X0085859Y0080661D03*
X0085859Y0080634D03*
X0085859Y0080606D03*
X0085859Y0080578D03*
X0085859Y0080551D03*
X0085859Y0080523D03*
X0085859Y0080496D03*
X0085859Y0080468D03*
X0085859Y0080441D03*
X0085032Y0078594D03*
X0083709Y0079035D03*
X0083709Y0079752D03*
X0083324Y0074515D03*
X0083324Y0073220D03*
X0085335Y0074515D03*
X0090737Y0074515D03*
X0090709Y0073220D03*
X0079603Y0071291D03*
D75*
X0079920Y0071732D03*
X0081133Y0073716D03*
X0081408Y0074708D03*
X0083337Y0074708D03*
X0083751Y0073330D03*
X0087885Y0074378D03*
X0088877Y0073082D03*
X0090723Y0074708D03*
X0093259Y0074378D03*
X0093727Y0071374D03*
X0095050Y0071677D03*
X0086176Y0078870D03*
X0086176Y0078897D03*
X0086176Y0079779D03*
X0085570Y0080165D03*
X0084605Y0080138D03*
X0083393Y0078319D03*
X0078211Y0074378D03*
X0076089Y0074405D03*
X0075648Y0074708D03*
X0084412Y0084216D03*
X0086176Y0084575D03*
X0084770Y0086421D03*
X0084770Y0086449D03*
X0082759Y0089452D03*
X0078074Y0088598D03*
X0078074Y0088571D03*
X0091495Y0087964D03*
X0091495Y0087937D03*
D76*
X0091316Y0087358D03*
X0089993Y0087441D03*
X0086989Y0089425D03*
X0084757Y0087000D03*
X0085997Y0086476D03*
X0085997Y0086449D03*
X0085997Y0086421D03*
X0083820Y0085567D03*
X0083572Y0084960D03*
X0083572Y0084767D03*
X0084233Y0083968D03*
X0085556Y0083913D03*
X0083572Y0086283D03*
X0083572Y0086311D03*
X0083572Y0086338D03*
X0082690Y0089039D03*
X0078253Y0088130D03*
X0084426Y0080275D03*
X0085721Y0080303D03*
X0085997Y0079393D03*
X0085997Y0079366D03*
X0083572Y0078732D03*
X0083572Y0078704D03*
X0083324Y0074626D03*
X0081394Y0074626D03*
X0085335Y0074626D03*
X0079741Y0071484D03*
X0077591Y0074543D03*
X0090709Y0073110D03*
X0093465Y0071429D03*
D77*
X0095009Y0071622D03*
X0088891Y0073110D03*
X0087843Y0074405D03*
X0083682Y0074433D03*
X0082965Y0074433D03*
X0081670Y0074047D03*
X0083324Y0073055D03*
X0079879Y0071677D03*
X0076048Y0073330D03*
X0083434Y0078401D03*
X0085060Y0078925D03*
X0086135Y0079008D03*
X0086135Y0079752D03*
X0085583Y0080193D03*
X0084564Y0080165D03*
X0084371Y0084161D03*
X0086135Y0084630D03*
X0086135Y0085126D03*
X0084757Y0086559D03*
X0084757Y0086586D03*
X0083434Y0087137D03*
X0082745Y0089342D03*
X0082745Y0089370D03*
X0086934Y0089673D03*
X0091454Y0087826D03*
X0091454Y0087799D03*
X0078115Y0088488D03*
D78*
X0078032Y0088681D03*
X0082772Y0089535D03*
X0084757Y0086311D03*
X0084095Y0085401D03*
X0083351Y0084437D03*
X0085335Y0084244D03*
X0086217Y0084519D03*
X0083351Y0080027D03*
X0085060Y0079035D03*
X0086217Y0078787D03*
X0086217Y0078760D03*
X0083351Y0078236D03*
X0083351Y0078208D03*
X0086934Y0074405D03*
X0087237Y0074708D03*
X0087926Y0074323D03*
X0085335Y0073027D03*
X0083324Y0073027D03*
X0082855Y0073358D03*
X0081863Y0073330D03*
X0081780Y0074102D03*
X0081091Y0073689D03*
X0078253Y0074323D03*
X0077591Y0074708D03*
X0076158Y0073386D03*
X0079961Y0071787D03*
X0092639Y0074708D03*
X0093300Y0074323D03*
X0095091Y0071732D03*
X0091536Y0088075D03*
X0091536Y0088102D03*
D79*
X0091702Y0088653D03*
X0086383Y0084271D03*
X0085143Y0084492D03*
X0084591Y0084492D03*
X0085253Y0085374D03*
X0084757Y0085787D03*
X0084757Y0085815D03*
X0084812Y0079972D03*
X0085087Y0079256D03*
X0086383Y0078319D03*
X0083186Y0077850D03*
X0081946Y0073441D03*
X0083324Y0073000D03*
X0084839Y0073413D03*
X0088643Y0073330D03*
X0075690Y0073000D03*
X0075194Y0073441D03*
X0075221Y0074323D03*
X0077867Y0089094D03*
D80*
X0077853Y0089122D03*
X0077853Y0089149D03*
X0082814Y0089893D03*
X0082814Y0089921D03*
X0084770Y0085760D03*
X0084605Y0084519D03*
X0085129Y0084519D03*
X0086396Y0084244D03*
X0086396Y0085263D03*
X0083172Y0084189D03*
X0083172Y0080165D03*
X0085349Y0079972D03*
X0086396Y0079972D03*
X0086396Y0078291D03*
X0086396Y0078263D03*
X0083172Y0077823D03*
X0081022Y0074378D03*
X0081436Y0073000D03*
X0090227Y0073413D03*
X0091715Y0088681D03*
X0091715Y0088708D03*
D81*
X0091619Y0088378D03*
X0091619Y0088350D03*
X0086851Y0089976D03*
X0084757Y0086063D03*
X0084757Y0086035D03*
X0084178Y0085346D03*
X0083269Y0084326D03*
X0085225Y0084382D03*
X0085446Y0080055D03*
X0086300Y0079889D03*
X0086300Y0078539D03*
X0083269Y0078043D03*
X0081863Y0074378D03*
X0081891Y0074323D03*
X0081891Y0074295D03*
X0081891Y0074267D03*
X0081891Y0074240D03*
X0081891Y0074212D03*
X0082607Y0073992D03*
X0082607Y0073964D03*
X0082607Y0073937D03*
X0082607Y0073909D03*
X0082607Y0073882D03*
X0082607Y0073854D03*
X0082607Y0073826D03*
X0082607Y0073799D03*
X0082607Y0073771D03*
X0082607Y0073744D03*
X0082635Y0073689D03*
X0082635Y0073661D03*
X0082635Y0074047D03*
X0082635Y0074075D03*
X0082635Y0074102D03*
X0084013Y0074102D03*
X0084040Y0074019D03*
X0084040Y0073992D03*
X0084040Y0073964D03*
X0084040Y0073937D03*
X0084040Y0073909D03*
X0084040Y0073882D03*
X0084040Y0073854D03*
X0084040Y0073826D03*
X0084040Y0073799D03*
X0084040Y0073771D03*
X0084040Y0073744D03*
X0084013Y0073661D03*
X0084013Y0073634D03*
X0084702Y0074019D03*
X0084702Y0074047D03*
X0084702Y0074075D03*
X0084702Y0074102D03*
X0084702Y0074130D03*
X0084702Y0074157D03*
X0084729Y0074212D03*
X0085942Y0074267D03*
X0085969Y0074212D03*
X0085997Y0074157D03*
X0085997Y0074130D03*
X0086024Y0074075D03*
X0086024Y0074047D03*
X0086024Y0074019D03*
X0086024Y0073716D03*
X0086024Y0073689D03*
X0085997Y0073606D03*
X0085997Y0073578D03*
X0085969Y0073551D03*
X0085969Y0073523D03*
X0086796Y0074130D03*
X0086796Y0074157D03*
X0087237Y0074736D03*
X0088009Y0074736D03*
X0088009Y0074763D03*
X0088009Y0074791D03*
X0088009Y0074819D03*
X0088009Y0074846D03*
X0088009Y0074874D03*
X0088009Y0074901D03*
X0088009Y0074929D03*
X0088009Y0074956D03*
X0088009Y0074984D03*
X0088009Y0075012D03*
X0088009Y0075039D03*
X0088009Y0075067D03*
X0088009Y0075094D03*
X0088009Y0075122D03*
X0088009Y0075149D03*
X0088009Y0075177D03*
X0088009Y0075204D03*
X0088009Y0075232D03*
X0088009Y0075260D03*
X0088009Y0075287D03*
X0088009Y0075315D03*
X0088009Y0075342D03*
X0088009Y0075370D03*
X0088009Y0074708D03*
X0088009Y0074681D03*
X0088009Y0074653D03*
X0088009Y0074626D03*
X0088009Y0074598D03*
X0088009Y0074571D03*
X0088009Y0074543D03*
X0088009Y0074515D03*
X0088009Y0074488D03*
X0088009Y0074460D03*
X0088009Y0073937D03*
X0088009Y0073909D03*
X0088009Y0073882D03*
X0088009Y0073854D03*
X0088009Y0073826D03*
X0088009Y0073799D03*
X0088009Y0073771D03*
X0088009Y0073744D03*
X0088009Y0073716D03*
X0088009Y0073689D03*
X0088009Y0073661D03*
X0088009Y0073634D03*
X0088009Y0073606D03*
X0088009Y0073578D03*
X0088009Y0073551D03*
X0088009Y0073523D03*
X0088009Y0073496D03*
X0088009Y0073468D03*
X0088009Y0073441D03*
X0088009Y0073413D03*
X0088009Y0073386D03*
X0088009Y0073358D03*
X0088009Y0073330D03*
X0088009Y0073303D03*
X0088009Y0073275D03*
X0088009Y0073248D03*
X0088009Y0073220D03*
X0088009Y0073193D03*
X0088009Y0073165D03*
X0088009Y0073138D03*
X0088009Y0073110D03*
X0088009Y0073082D03*
X0088009Y0073055D03*
X0088891Y0073027D03*
X0089249Y0073468D03*
X0089249Y0073496D03*
X0089249Y0073523D03*
X0089249Y0073551D03*
X0089249Y0073578D03*
X0089249Y0073606D03*
X0089249Y0073634D03*
X0089249Y0073661D03*
X0089249Y0073689D03*
X0089249Y0073716D03*
X0089249Y0073744D03*
X0089249Y0073771D03*
X0089249Y0073799D03*
X0089249Y0073826D03*
X0089249Y0073854D03*
X0089249Y0073882D03*
X0089249Y0073909D03*
X0089249Y0073937D03*
X0089249Y0073964D03*
X0089249Y0073992D03*
X0089249Y0074019D03*
X0089249Y0074047D03*
X0089249Y0074075D03*
X0089249Y0074102D03*
X0089249Y0074130D03*
X0089249Y0074157D03*
X0089249Y0074185D03*
X0089249Y0074212D03*
X0089249Y0074240D03*
X0089249Y0074267D03*
X0089249Y0074295D03*
X0089249Y0074323D03*
X0089249Y0074350D03*
X0089249Y0074378D03*
X0089249Y0074405D03*
X0089249Y0074433D03*
X0089249Y0074763D03*
X0089249Y0074791D03*
X0089249Y0074819D03*
X0089249Y0074846D03*
X0089249Y0074874D03*
X0089249Y0074901D03*
X0089249Y0074929D03*
X0089249Y0074956D03*
X0089249Y0074984D03*
X0089249Y0075012D03*
X0089249Y0075039D03*
X0089249Y0075067D03*
X0089249Y0075094D03*
X0089249Y0075122D03*
X0089249Y0075149D03*
X0089249Y0075177D03*
X0089249Y0075204D03*
X0089249Y0075232D03*
X0089249Y0075260D03*
X0090131Y0074240D03*
X0090103Y0074185D03*
X0090103Y0074157D03*
X0090103Y0074130D03*
X0090076Y0074075D03*
X0090076Y0074047D03*
X0090076Y0074019D03*
X0091343Y0074240D03*
X0091371Y0074212D03*
X0091371Y0074185D03*
X0091398Y0074130D03*
X0091398Y0074102D03*
X0091398Y0073716D03*
X0091398Y0073661D03*
X0091398Y0073634D03*
X0091398Y0073606D03*
X0091371Y0073578D03*
X0091371Y0073551D03*
X0091343Y0073496D03*
X0092170Y0073496D03*
X0092170Y0073523D03*
X0092170Y0073551D03*
X0092170Y0073578D03*
X0092170Y0073606D03*
X0092170Y0073634D03*
X0092170Y0073661D03*
X0092170Y0073689D03*
X0092170Y0073716D03*
X0092170Y0073744D03*
X0092170Y0073771D03*
X0092170Y0073799D03*
X0092170Y0073826D03*
X0092170Y0073854D03*
X0092170Y0073882D03*
X0092170Y0073909D03*
X0092170Y0073937D03*
X0092170Y0073964D03*
X0092170Y0073992D03*
X0092170Y0074019D03*
X0092170Y0074047D03*
X0092170Y0074075D03*
X0092170Y0073468D03*
X0092170Y0073441D03*
X0092170Y0073413D03*
X0092170Y0073386D03*
X0092170Y0073358D03*
X0092170Y0073330D03*
X0092170Y0073303D03*
X0092170Y0073275D03*
X0092170Y0073248D03*
X0092170Y0073220D03*
X0092170Y0073193D03*
X0092170Y0073165D03*
X0092170Y0073138D03*
X0092170Y0073110D03*
X0092170Y0073082D03*
X0092170Y0073055D03*
X0092170Y0073027D03*
X0093383Y0073027D03*
X0093383Y0073055D03*
X0093383Y0073082D03*
X0093383Y0073110D03*
X0093383Y0073138D03*
X0093383Y0073165D03*
X0093383Y0073193D03*
X0093383Y0073220D03*
X0093383Y0073248D03*
X0093383Y0073275D03*
X0093383Y0073303D03*
X0093383Y0073330D03*
X0093383Y0073358D03*
X0093383Y0073386D03*
X0093383Y0073413D03*
X0093383Y0073441D03*
X0093383Y0073468D03*
X0093383Y0073496D03*
X0093383Y0073523D03*
X0093383Y0073551D03*
X0093383Y0073578D03*
X0093383Y0073606D03*
X0093383Y0073634D03*
X0093383Y0073661D03*
X0093383Y0073689D03*
X0093383Y0073716D03*
X0093383Y0073744D03*
X0093383Y0073771D03*
X0093383Y0073799D03*
X0093383Y0073826D03*
X0093383Y0073854D03*
X0093383Y0073882D03*
X0093383Y0073909D03*
X0093383Y0073937D03*
X0093383Y0073964D03*
X0093383Y0073992D03*
X0093383Y0074019D03*
X0093383Y0074047D03*
X0093383Y0074075D03*
X0093383Y0074460D03*
X0093383Y0074488D03*
X0093383Y0074515D03*
X0093383Y0074543D03*
X0093383Y0074571D03*
X0093383Y0074598D03*
X0093383Y0074626D03*
X0093383Y0074653D03*
X0093383Y0074681D03*
X0093383Y0074708D03*
X0093383Y0074736D03*
X0093383Y0074763D03*
X0093383Y0074791D03*
X0093383Y0074819D03*
X0093383Y0074846D03*
X0093383Y0074874D03*
X0093383Y0074901D03*
X0093383Y0074929D03*
X0093383Y0074956D03*
X0093383Y0074984D03*
X0093383Y0075012D03*
X0093383Y0075039D03*
X0093383Y0075067D03*
X0093383Y0075094D03*
X0093383Y0075122D03*
X0093383Y0075149D03*
X0093383Y0075177D03*
X0093383Y0075204D03*
X0093383Y0075232D03*
X0093383Y0075260D03*
X0093383Y0075287D03*
X0093383Y0075315D03*
X0093383Y0075342D03*
X0093383Y0075370D03*
X0093383Y0075397D03*
X0094788Y0073027D03*
X0080981Y0073441D03*
X0080981Y0073468D03*
X0080981Y0073496D03*
X0080981Y0073523D03*
X0080981Y0073551D03*
X0079272Y0073551D03*
X0079272Y0073578D03*
X0079272Y0073606D03*
X0079272Y0073634D03*
X0079272Y0073661D03*
X0079272Y0073689D03*
X0079272Y0073716D03*
X0079272Y0073744D03*
X0079272Y0073771D03*
X0079272Y0073799D03*
X0079272Y0073826D03*
X0079272Y0073854D03*
X0079272Y0073882D03*
X0079272Y0073909D03*
X0079272Y0073937D03*
X0079272Y0073964D03*
X0079272Y0073992D03*
X0079272Y0074019D03*
X0079272Y0074047D03*
X0079272Y0074075D03*
X0079272Y0074102D03*
X0079272Y0074130D03*
X0079272Y0074157D03*
X0079272Y0074185D03*
X0079272Y0074212D03*
X0079272Y0074240D03*
X0079272Y0074267D03*
X0079272Y0074295D03*
X0079272Y0074323D03*
X0079272Y0074350D03*
X0079272Y0074378D03*
X0079272Y0074405D03*
X0079272Y0074433D03*
X0079272Y0074460D03*
X0079272Y0074488D03*
X0079272Y0074515D03*
X0079272Y0074543D03*
X0079272Y0074571D03*
X0079272Y0074598D03*
X0079272Y0074626D03*
X0079272Y0074653D03*
X0079272Y0074681D03*
X0079272Y0074708D03*
X0079272Y0074736D03*
X0079272Y0074763D03*
X0079272Y0074791D03*
X0079272Y0074819D03*
X0079272Y0074846D03*
X0079272Y0074874D03*
X0079272Y0074901D03*
X0079272Y0074929D03*
X0079272Y0074956D03*
X0079272Y0074984D03*
X0079272Y0075012D03*
X0079272Y0075039D03*
X0079272Y0075067D03*
X0079272Y0075094D03*
X0079272Y0075122D03*
X0079272Y0075149D03*
X0079272Y0075177D03*
X0079272Y0075204D03*
X0079272Y0075232D03*
X0079272Y0075260D03*
X0078335Y0074708D03*
X0078335Y0074681D03*
X0078335Y0074653D03*
X0078335Y0074626D03*
X0078335Y0074598D03*
X0078335Y0074571D03*
X0078335Y0074543D03*
X0078335Y0074515D03*
X0078335Y0074488D03*
X0078335Y0074460D03*
X0078335Y0074102D03*
X0078335Y0074075D03*
X0078335Y0074047D03*
X0078335Y0074019D03*
X0078335Y0073992D03*
X0078335Y0073964D03*
X0078335Y0073937D03*
X0078335Y0073909D03*
X0078335Y0073882D03*
X0078335Y0073854D03*
X0078335Y0073826D03*
X0078335Y0073799D03*
X0078335Y0073771D03*
X0078335Y0073744D03*
X0078335Y0073716D03*
X0078335Y0073689D03*
X0078335Y0073661D03*
X0078335Y0073634D03*
X0078335Y0073606D03*
X0078335Y0073578D03*
X0078335Y0073551D03*
X0078335Y0073523D03*
X0078335Y0073496D03*
X0078335Y0073468D03*
X0078335Y0073441D03*
X0078335Y0073413D03*
X0078335Y0073386D03*
X0078335Y0073358D03*
X0078335Y0073330D03*
X0078335Y0073303D03*
X0078335Y0073275D03*
X0078335Y0073248D03*
X0078335Y0073220D03*
X0078335Y0073193D03*
X0078335Y0073165D03*
X0078335Y0073138D03*
X0078335Y0073110D03*
X0078335Y0073082D03*
X0078335Y0073055D03*
X0078335Y0073027D03*
X0079272Y0073027D03*
X0079272Y0073055D03*
X0079272Y0073082D03*
X0079272Y0073110D03*
X0079272Y0073138D03*
X0079272Y0073165D03*
X0079272Y0073193D03*
X0079272Y0073220D03*
X0079272Y0073248D03*
X0079272Y0073275D03*
X0079272Y0073303D03*
X0079272Y0073330D03*
X0079272Y0073358D03*
X0079272Y0073386D03*
X0079272Y0073413D03*
X0079272Y0073441D03*
X0079272Y0073468D03*
X0079272Y0073496D03*
X0079272Y0073523D03*
X0077123Y0073523D03*
X0077123Y0073496D03*
X0077123Y0073468D03*
X0077123Y0073441D03*
X0077123Y0073413D03*
X0077123Y0073386D03*
X0077123Y0073358D03*
X0077123Y0073330D03*
X0077123Y0073303D03*
X0077123Y0073275D03*
X0077123Y0073248D03*
X0077123Y0073220D03*
X0077123Y0073193D03*
X0077123Y0073165D03*
X0077123Y0073138D03*
X0077123Y0073110D03*
X0077123Y0073082D03*
X0077123Y0073055D03*
X0077123Y0073027D03*
X0077123Y0073551D03*
X0077123Y0073578D03*
X0077123Y0073606D03*
X0077123Y0073634D03*
X0077123Y0073661D03*
X0077123Y0073689D03*
X0077123Y0073716D03*
X0077123Y0073744D03*
X0077123Y0073771D03*
X0077123Y0073799D03*
X0077123Y0073826D03*
X0077123Y0073854D03*
X0077123Y0073882D03*
X0077123Y0073909D03*
X0077123Y0073937D03*
X0077123Y0073964D03*
X0077123Y0073992D03*
X0077123Y0074019D03*
X0077123Y0074047D03*
X0076379Y0073992D03*
X0076379Y0073964D03*
X0076379Y0073937D03*
X0076379Y0073909D03*
X0076379Y0073882D03*
X0076379Y0073854D03*
X0076379Y0073826D03*
X0076379Y0073799D03*
X0076379Y0073771D03*
X0076351Y0073689D03*
X0076351Y0074047D03*
X0076351Y0074075D03*
X0075249Y0074378D03*
X0077950Y0088901D03*
D82*
X0077936Y0088929D03*
X0082786Y0089728D03*
X0086837Y0090004D03*
X0084770Y0086008D03*
X0084522Y0084409D03*
X0085211Y0084409D03*
X0086314Y0084382D03*
X0083255Y0084299D03*
X0084743Y0080027D03*
X0085074Y0079145D03*
X0086314Y0078512D03*
X0086314Y0078484D03*
X0083255Y0078015D03*
X0083255Y0077988D03*
X0081877Y0074350D03*
X0081078Y0074433D03*
X0081932Y0073386D03*
X0084853Y0073358D03*
X0086011Y0073634D03*
X0086011Y0073661D03*
X0086011Y0074102D03*
X0085983Y0074185D03*
X0086782Y0073027D03*
X0087995Y0073027D03*
X0090255Y0073358D03*
X0091412Y0073689D03*
X0091412Y0074019D03*
X0091412Y0074047D03*
X0091412Y0074075D03*
X0091385Y0074157D03*
X0092625Y0074736D03*
X0087995Y0075397D03*
X0077578Y0074736D03*
X0075207Y0073386D03*
X0074408Y0073413D03*
X0074408Y0073055D03*
X0091633Y0088405D03*
X0091633Y0088433D03*
D83*
X0091674Y0088543D03*
X0091674Y0088571D03*
X0084757Y0085897D03*
X0084757Y0085870D03*
X0084564Y0084464D03*
X0085170Y0084464D03*
X0083213Y0084244D03*
X0083213Y0080138D03*
X0084784Y0080000D03*
X0085087Y0079200D03*
X0086355Y0078401D03*
X0086355Y0078374D03*
X0083213Y0077905D03*
X0081946Y0073413D03*
X0084839Y0073386D03*
X0090241Y0073386D03*
X0074394Y0073441D03*
X0074394Y0073027D03*
X0077894Y0089039D03*
X0082800Y0089811D03*
X0082800Y0089838D03*
D84*
X0086837Y0090031D03*
X0084770Y0085925D03*
X0085322Y0085401D03*
X0085184Y0084437D03*
X0084550Y0084437D03*
X0083227Y0084271D03*
X0086341Y0084326D03*
X0086341Y0085236D03*
X0085404Y0080027D03*
X0086341Y0078429D03*
X0083227Y0077933D03*
X0075235Y0074350D03*
X0075207Y0073413D03*
X0091660Y0088515D03*
X0077908Y0088984D03*
X0077908Y0089012D03*
D85*
X0077839Y0089177D03*
X0082828Y0089949D03*
X0082828Y0089976D03*
X0084757Y0085732D03*
X0084757Y0085704D03*
X0084316Y0085263D03*
X0084619Y0084547D03*
X0085115Y0084547D03*
X0083158Y0084161D03*
X0083158Y0085236D03*
X0085087Y0079283D03*
X0086410Y0078236D03*
X0083158Y0077795D03*
X0081973Y0073468D03*
X0075221Y0074295D03*
X0075194Y0073468D03*
X0091729Y0088736D03*
X0091729Y0088763D03*
D86*
X0091784Y0088929D03*
X0086438Y0085291D03*
X0086465Y0084161D03*
X0085060Y0084630D03*
X0084757Y0085539D03*
X0084757Y0085567D03*
X0083103Y0084078D03*
X0083103Y0080220D03*
X0085087Y0079338D03*
X0085280Y0079917D03*
X0086465Y0078098D03*
X0083103Y0077657D03*
X0090213Y0073496D03*
X0075194Y0074240D03*
X0073540Y0079586D03*
X0077784Y0089315D03*
D87*
X0077812Y0089232D03*
X0082828Y0090004D03*
X0084757Y0085649D03*
X0084757Y0085622D03*
X0085198Y0085346D03*
X0085087Y0084575D03*
X0084646Y0084575D03*
X0084371Y0085236D03*
X0083131Y0084134D03*
X0086438Y0084189D03*
X0085308Y0079945D03*
X0085087Y0079311D03*
X0086438Y0078153D03*
X0083131Y0077712D03*
X0083131Y0080193D03*
X0081009Y0074350D03*
X0075194Y0074267D03*
X0091757Y0088819D03*
X0091757Y0088846D03*
D88*
X0089952Y0087826D03*
X0087085Y0088984D03*
X0084770Y0087826D03*
X0084770Y0087799D03*
X0084770Y0087771D03*
X0082621Y0088488D03*
X0078515Y0087496D03*
X0078515Y0087468D03*
X0083999Y0083610D03*
X0083833Y0079311D03*
X0085019Y0078429D03*
X0077770Y0074433D03*
X0092818Y0074433D03*
D89*
X0087430Y0074433D03*
X0083847Y0079338D03*
X0083847Y0079641D03*
X0084123Y0080496D03*
X0083985Y0083582D03*
X0078528Y0087441D03*
X0080265Y0087744D03*
X0082607Y0088433D03*
X0082607Y0088460D03*
X0087099Y0088929D03*
X0087099Y0088956D03*
D90*
X0089814Y0089149D03*
X0084798Y0077134D03*
X0084770Y0076279D03*
D91*
X0084784Y0076307D03*
X0084784Y0076334D03*
X0084784Y0076362D03*
X0084784Y0076389D03*
X0084784Y0076417D03*
X0084784Y0076445D03*
X0084784Y0076472D03*
X0084784Y0076500D03*
X0084784Y0076527D03*
X0084784Y0076555D03*
X0084784Y0076582D03*
X0084784Y0076610D03*
X0084784Y0076638D03*
X0084784Y0076665D03*
X0084784Y0076693D03*
X0084784Y0076720D03*
X0084784Y0076748D03*
X0084784Y0076775D03*
X0084784Y0076803D03*
X0084784Y0076830D03*
X0084784Y0076858D03*
X0084784Y0076886D03*
X0084784Y0076913D03*
X0084784Y0076941D03*
X0084784Y0076968D03*
X0084784Y0076996D03*
X0084784Y0077023D03*
X0084784Y0077051D03*
X0084784Y0077078D03*
X0084784Y0077106D03*
X0087485Y0087275D03*
X0087485Y0087303D03*
X0089828Y0089177D03*
X0080127Y0089094D03*
X0080127Y0089067D03*
D92*
X0080127Y0089039D03*
X0087485Y0087330D03*
X0084812Y0077161D03*
D93*
X0084826Y0077189D03*
X0087471Y0087358D03*
X0089814Y0089122D03*
X0080141Y0089012D03*
D94*
X0087457Y0087386D03*
X0089828Y0089094D03*
X0084839Y0077216D03*
D95*
X0084853Y0077244D03*
X0080141Y0088984D03*
D96*
X0087457Y0087413D03*
X0089828Y0089067D03*
X0084867Y0077299D03*
X0084867Y0077271D03*
D97*
X0084881Y0077326D03*
X0087444Y0087441D03*
X0087444Y0087468D03*
X0089841Y0089039D03*
X0080141Y0088956D03*
X0080141Y0088929D03*
D98*
X0089828Y0089012D03*
X0084894Y0077354D03*
D99*
X0084908Y0077382D03*
X0087444Y0087496D03*
X0080141Y0088901D03*
D100*
X0080154Y0088874D03*
X0087430Y0087523D03*
X0089828Y0088984D03*
X0084922Y0077409D03*
D101*
X0084922Y0077437D03*
X0080154Y0088846D03*
D102*
X0087416Y0087606D03*
X0087416Y0087578D03*
X0089841Y0088929D03*
X0084936Y0077464D03*
D103*
X0084950Y0077492D03*
X0087402Y0087634D03*
X0089855Y0088901D03*
X0080154Y0088819D03*
X0080154Y0088791D03*
D104*
X0080154Y0088763D03*
X0084784Y0090031D03*
X0084950Y0077519D03*
D105*
X0084936Y0077547D03*
X0087389Y0087689D03*
X0087389Y0087716D03*
X0089841Y0088846D03*
X0084770Y0090004D03*
X0080168Y0088736D03*
D106*
X0084784Y0089949D03*
X0084784Y0089976D03*
X0087375Y0087744D03*
X0089855Y0088819D03*
X0084950Y0077575D03*
D107*
X0084950Y0077602D03*
X0087375Y0087771D03*
X0089855Y0088791D03*
X0084784Y0089866D03*
X0084784Y0089893D03*
D108*
X0084784Y0089811D03*
X0084784Y0089783D03*
X0087347Y0087826D03*
X0089855Y0088736D03*
X0084950Y0077630D03*
D109*
X0084950Y0077657D03*
X0087347Y0087854D03*
X0087347Y0087882D03*
X0089855Y0088708D03*
X0084784Y0089700D03*
X0080182Y0088598D03*
D110*
X0082428Y0087165D03*
X0084770Y0089645D03*
X0084770Y0089673D03*
X0087333Y0087909D03*
X0089869Y0088681D03*
X0084963Y0077685D03*
D111*
X0084963Y0077712D03*
X0082456Y0087220D03*
X0084770Y0089563D03*
X0084770Y0089590D03*
X0087333Y0087937D03*
X0089869Y0088653D03*
D112*
X0089869Y0088598D03*
X0084770Y0089480D03*
X0084770Y0089508D03*
X0082456Y0087303D03*
X0082456Y0087275D03*
X0084963Y0077740D03*
D113*
X0084963Y0077767D03*
X0084963Y0077795D03*
X0082456Y0087330D03*
X0080196Y0088460D03*
X0084770Y0089397D03*
X0084770Y0089425D03*
X0087306Y0088047D03*
X0089869Y0088571D03*
D114*
X0084770Y0089315D03*
X0084770Y0089342D03*
X0080196Y0088433D03*
X0084963Y0077823D03*
D115*
X0084963Y0077850D03*
X0082483Y0087468D03*
X0080196Y0088378D03*
X0080196Y0088405D03*
X0084770Y0089232D03*
X0084770Y0089260D03*
X0087278Y0088157D03*
D116*
X0089883Y0088460D03*
X0084784Y0089204D03*
X0084977Y0077878D03*
D117*
X0084977Y0077905D03*
X0082497Y0087551D03*
X0080209Y0088323D03*
X0084784Y0089122D03*
X0087265Y0088212D03*
X0089883Y0088433D03*
D118*
X0089938Y0087909D03*
X0087127Y0088846D03*
X0082607Y0088323D03*
X0078583Y0087303D03*
X0083930Y0083500D03*
X0083902Y0079476D03*
X0085005Y0078346D03*
D119*
X0085019Y0078374D03*
X0083889Y0079421D03*
X0083889Y0079449D03*
X0083944Y0083527D03*
X0078570Y0087330D03*
X0078570Y0087358D03*
X0080251Y0087799D03*
X0082593Y0088350D03*
X0084770Y0087992D03*
X0084770Y0087964D03*
X0084770Y0087937D03*
X0087113Y0088874D03*
D120*
X0087085Y0089012D03*
X0084770Y0087744D03*
X0084770Y0087716D03*
X0084770Y0087689D03*
X0082621Y0088515D03*
X0082621Y0088543D03*
X0078487Y0087551D03*
X0084026Y0083638D03*
X0084164Y0080468D03*
X0083806Y0079669D03*
X0083806Y0079256D03*
X0085019Y0078484D03*
X0085019Y0078456D03*
X0089952Y0087771D03*
D121*
X0089965Y0087799D03*
X0080265Y0087716D03*
X0080265Y0087689D03*
X0078501Y0087523D03*
X0083820Y0079283D03*
D122*
X0087513Y0087165D03*
X0087513Y0087193D03*
X0089800Y0089260D03*
X0080127Y0089149D03*
D123*
X0080182Y0088571D03*
X0082442Y0087193D03*
X0084784Y0089618D03*
D124*
X0087499Y0087220D03*
X0089814Y0089232D03*
D125*
X0089814Y0089204D03*
X0087499Y0087248D03*
D126*
X0087320Y0087964D03*
X0087320Y0087992D03*
X0089883Y0088626D03*
X0084784Y0089535D03*
X0082442Y0087248D03*
X0080182Y0088515D03*
X0080182Y0088543D03*
D127*
X0082469Y0087386D03*
X0082469Y0087358D03*
X0084784Y0089370D03*
X0087292Y0088075D03*
X0089883Y0088543D03*
D128*
X0089883Y0088515D03*
X0089883Y0088488D03*
X0087292Y0088130D03*
X0087292Y0088102D03*
X0084784Y0089287D03*
X0082469Y0087441D03*
X0082469Y0087413D03*
D129*
X0082483Y0087496D03*
X0082483Y0087523D03*
X0080196Y0088350D03*
X0084770Y0089149D03*
X0084770Y0089177D03*
X0087278Y0088185D03*
D130*
X0087416Y0087551D03*
X0089841Y0088956D03*
D131*
X0089896Y0088405D03*
X0087251Y0088240D03*
X0084770Y0089039D03*
X0084770Y0089067D03*
X0084770Y0089094D03*
X0082483Y0087578D03*
D132*
X0087389Y0087661D03*
X0089841Y0088874D03*
D133*
X0089869Y0088763D03*
X0087361Y0087799D03*
X0084770Y0089838D03*
X0080168Y0088681D03*
X0080168Y0088653D03*
D134*
X0080182Y0088488D03*
X0084784Y0089452D03*
X0087320Y0088019D03*
D135*
X0084770Y0089728D03*
X0084770Y0089756D03*
X0080168Y0088626D03*
D136*
X0080168Y0088708D03*
X0084770Y0089921D03*
D137*
X0080127Y0089122D03*
D138*
X0080113Y0089177D03*
D139*
X0080113Y0089204D03*
X0080113Y0089232D03*
X0089814Y0089315D03*
D140*
X0080113Y0089260D03*
D141*
X0089800Y0089287D03*
D142*
X0089786Y0089397D03*
X0080113Y0089287D03*
D143*
X0080099Y0089315D03*
D144*
X0089800Y0089342D03*
D145*
X0080099Y0089342D03*
X0080099Y0089370D03*
D146*
X0089800Y0089370D03*
D147*
X0080099Y0089397D03*
D148*
X0089786Y0089425D03*
X0089786Y0089452D03*
D149*
X0089772Y0089535D03*
X0080099Y0089425D03*
D150*
X0080085Y0089452D03*
D151*
X0089786Y0089480D03*
D152*
X0080085Y0089480D03*
X0080085Y0089508D03*
D153*
X0089786Y0089508D03*
D154*
X0080085Y0089535D03*
D155*
X0089772Y0089563D03*
X0089772Y0089590D03*
D156*
X0089759Y0089673D03*
X0080085Y0089563D03*
D157*
X0080072Y0089590D03*
X0089745Y0089700D03*
X0089745Y0089728D03*
D158*
X0089772Y0089618D03*
D159*
X0089717Y0089783D03*
X0080072Y0089645D03*
X0080072Y0089618D03*
D160*
X0089772Y0089645D03*
D161*
X0089690Y0089838D03*
X0089690Y0089866D03*
X0080072Y0089673D03*
D162*
X0080058Y0089700D03*
X0089676Y0089893D03*
D163*
X0089648Y0089949D03*
X0080058Y0089728D03*
D164*
X0089731Y0089756D03*
D165*
X0089621Y0090031D03*
X0080058Y0089783D03*
X0080058Y0089756D03*
D166*
X0089704Y0089811D03*
D167*
X0080058Y0089811D03*
D168*
X0080044Y0089838D03*
D169*
X0080044Y0089866D03*
D170*
X0080044Y0089893D03*
X0080044Y0089921D03*
D171*
X0089662Y0089921D03*
D172*
X0080058Y0089949D03*
X0080058Y0089976D03*
D173*
X0089635Y0089976D03*
X0089635Y0090004D03*
D174*
X0080072Y0090004D03*
D175*
X0080085Y0090031D03*
M02*
