G75*
%MOIN*%
%OFA0B0*%
%FSLAX25Y25*%
%IPPOS*%
%LPD*%
%AMOC8*
5,1,8,0,0,1.08239X$1,22.5*
%
%ADD10C,0.00000*%
%ADD11C,0.10000*%
%ADD12OC8,0.10000*%
%ADD13C,0.06000*%
%ADD14OC8,0.05200*%
%ADD15R,0.05150X0.05150*%
%ADD16C,0.05150*%
%ADD17C,0.01600*%
%ADD18C,0.01200*%
%ADD19C,0.04000*%
D10*
X0001800Y0004102D02*
X0001800Y0109063D01*
X0140501Y0109063D01*
X0140501Y0004102D01*
X0001800Y0004102D01*
D11*
X0061800Y0019102D03*
D12*
X0061800Y0039102D03*
D13*
X0093800Y0039102D02*
X0099800Y0039102D01*
X0099800Y0029102D02*
X0093800Y0029102D01*
X0093800Y0019102D02*
X0099800Y0019102D01*
X0118800Y0019102D02*
X0124800Y0019102D01*
X0124800Y0029102D02*
X0118800Y0029102D01*
X0118800Y0039102D02*
X0124800Y0039102D01*
X0019800Y0059102D02*
X0013800Y0059102D01*
X0013800Y0069102D02*
X0019800Y0069102D01*
X0019800Y0079102D02*
X0013800Y0079102D01*
X0013800Y0089102D02*
X0019800Y0089102D01*
X0019800Y0099102D02*
X0013800Y0099102D01*
D14*
X0011800Y0044102D03*
X0026800Y0044102D03*
X0026800Y0014102D03*
X0011800Y0014102D03*
D15*
X0054605Y0064161D03*
X0054605Y0094161D03*
D16*
X0044605Y0094161D03*
X0044605Y0084161D03*
X0054605Y0084161D03*
X0054605Y0074161D03*
X0044605Y0074161D03*
X0044605Y0064161D03*
D17*
X0048166Y0061252D02*
X0048483Y0061570D01*
X0049180Y0063251D01*
X0049180Y0065071D01*
X0048483Y0066753D01*
X0047197Y0068039D01*
X0045515Y0068736D01*
X0043695Y0068736D01*
X0042014Y0068039D01*
X0040727Y0066753D01*
X0040030Y0065071D01*
X0040030Y0063251D01*
X0040727Y0061570D01*
X0041044Y0061252D01*
X0041027Y0061252D01*
X0032650Y0069629D01*
X0032650Y0078145D01*
X0033441Y0078936D01*
X0034050Y0080406D01*
X0034050Y0081998D01*
X0033441Y0083468D01*
X0032316Y0084593D01*
X0030846Y0085202D01*
X0029900Y0085202D01*
X0029900Y0086175D01*
X0042677Y0098952D01*
X0057573Y0098952D01*
X0059350Y0097175D01*
X0059350Y0091079D01*
X0056570Y0088299D01*
X0055515Y0088736D01*
X0053695Y0088736D01*
X0052014Y0088039D01*
X0050727Y0086753D01*
X0050030Y0085071D01*
X0050030Y0083251D01*
X0050727Y0081570D01*
X0052014Y0080283D01*
X0053695Y0079586D01*
X0055515Y0079586D01*
X0057197Y0080283D01*
X0058483Y0081570D01*
X0059180Y0083251D01*
X0059180Y0083555D01*
X0063423Y0087798D01*
X0064154Y0088529D01*
X0064550Y0089485D01*
X0064550Y0098769D01*
X0064154Y0099725D01*
X0060854Y0103025D01*
X0060123Y0103756D01*
X0059167Y0104152D01*
X0041083Y0104152D01*
X0040127Y0103756D01*
X0025827Y0089456D01*
X0025096Y0088725D01*
X0024700Y0087769D01*
X0024700Y0085579D01*
X0022512Y0083391D01*
X0020795Y0084102D01*
X0012805Y0084102D01*
X0010968Y0083341D01*
X0009561Y0081934D01*
X0008800Y0080097D01*
X0008800Y0078107D01*
X0009561Y0076270D01*
X0010968Y0074863D01*
X0012805Y0074102D01*
X0010968Y0073341D01*
X0009561Y0071934D01*
X0008800Y0070097D01*
X0008800Y0068107D01*
X0009561Y0066270D01*
X0010968Y0064863D01*
X0012805Y0064102D01*
X0020795Y0064102D01*
X0022441Y0064784D01*
X0032977Y0054248D01*
X0033933Y0053852D01*
X0059167Y0053852D01*
X0060123Y0054248D01*
X0060854Y0054979D01*
X0064154Y0058279D01*
X0064550Y0059235D01*
X0064550Y0069619D01*
X0064154Y0070575D01*
X0063423Y0071306D01*
X0061223Y0073506D01*
X0060284Y0073895D01*
X0059180Y0074999D01*
X0059180Y0075071D01*
X0058483Y0076753D01*
X0057197Y0078039D01*
X0055515Y0078736D01*
X0053695Y0078736D01*
X0052014Y0078039D01*
X0050727Y0076753D01*
X0050030Y0075071D01*
X0050030Y0073251D01*
X0050727Y0071570D01*
X0052014Y0070283D01*
X0053695Y0069586D01*
X0055515Y0069586D01*
X0056734Y0070091D01*
X0056996Y0069829D01*
X0057727Y0069098D01*
X0058666Y0068709D01*
X0059350Y0068025D01*
X0059350Y0060829D01*
X0057573Y0059052D01*
X0053377Y0059052D01*
X0053911Y0059586D01*
X0058008Y0059586D01*
X0059180Y0060758D01*
X0059180Y0067564D01*
X0058008Y0068736D01*
X0051202Y0068736D01*
X0050030Y0067564D01*
X0050030Y0063059D01*
X0048223Y0061252D01*
X0048166Y0061252D01*
X0048932Y0062652D02*
X0049623Y0062652D01*
X0050030Y0064250D02*
X0049180Y0064250D01*
X0048858Y0065849D02*
X0050030Y0065849D01*
X0050030Y0067448D02*
X0047788Y0067448D01*
X0047197Y0070283D02*
X0045515Y0069586D01*
X0043695Y0069586D01*
X0042014Y0070283D01*
X0040727Y0071570D01*
X0040030Y0073251D01*
X0040030Y0075071D01*
X0040727Y0076753D01*
X0042014Y0078039D01*
X0043695Y0078736D01*
X0045515Y0078736D01*
X0047197Y0078039D01*
X0048483Y0076753D01*
X0049180Y0075071D01*
X0049180Y0073251D01*
X0048483Y0071570D01*
X0047197Y0070283D01*
X0047558Y0070645D02*
X0051652Y0070645D01*
X0050448Y0072243D02*
X0048762Y0072243D01*
X0049180Y0073842D02*
X0050030Y0073842D01*
X0050183Y0075440D02*
X0049027Y0075440D01*
X0048197Y0077039D02*
X0051013Y0077039D01*
X0053457Y0078637D02*
X0045754Y0078637D01*
X0045515Y0079586D02*
X0047197Y0080283D01*
X0048483Y0081570D01*
X0049180Y0083251D01*
X0049180Y0085071D01*
X0048483Y0086753D01*
X0047197Y0088039D01*
X0045515Y0088736D01*
X0043695Y0088736D01*
X0042014Y0088039D01*
X0040727Y0086753D01*
X0040030Y0085071D01*
X0040030Y0083251D01*
X0040727Y0081570D01*
X0042014Y0080283D01*
X0043695Y0079586D01*
X0045515Y0079586D01*
X0047083Y0080236D02*
X0052128Y0080236D01*
X0050617Y0081834D02*
X0048593Y0081834D01*
X0049180Y0083433D02*
X0050030Y0083433D01*
X0050030Y0085031D02*
X0049180Y0085031D01*
X0048534Y0086630D02*
X0050676Y0086630D01*
X0052469Y0088228D02*
X0046741Y0088228D01*
X0046095Y0089827D02*
X0051643Y0089827D01*
X0051793Y0089786D02*
X0054605Y0089786D01*
X0054605Y0094161D01*
X0050230Y0094161D01*
X0050230Y0091349D01*
X0050353Y0090892D01*
X0050590Y0090481D01*
X0050925Y0090146D01*
X0051336Y0089909D01*
X0051793Y0089786D01*
X0050230Y0091425D02*
X0048339Y0091425D01*
X0048483Y0091570D02*
X0049180Y0093251D01*
X0049180Y0095071D01*
X0048483Y0096753D01*
X0047197Y0098039D01*
X0045515Y0098736D01*
X0043695Y0098736D01*
X0042014Y0098039D01*
X0040727Y0096753D01*
X0040030Y0095071D01*
X0040030Y0093251D01*
X0040727Y0091570D01*
X0042014Y0090283D01*
X0043695Y0089586D01*
X0045515Y0089586D01*
X0047197Y0090283D01*
X0048483Y0091570D01*
X0049086Y0093024D02*
X0050230Y0093024D01*
X0050230Y0094161D02*
X0054605Y0094161D01*
X0054605Y0094161D01*
X0054605Y0094161D01*
X0054605Y0089786D01*
X0057417Y0089786D01*
X0057875Y0089909D01*
X0058285Y0090146D01*
X0058620Y0090481D01*
X0058857Y0090892D01*
X0058980Y0091349D01*
X0058980Y0094161D01*
X0054605Y0094161D01*
X0054605Y0098536D01*
X0051793Y0098536D01*
X0051336Y0098413D01*
X0050925Y0098176D01*
X0050590Y0097841D01*
X0050353Y0097431D01*
X0050230Y0096973D01*
X0050230Y0094161D01*
X0050230Y0094622D02*
X0049180Y0094622D01*
X0048704Y0096221D02*
X0050230Y0096221D01*
X0050577Y0097819D02*
X0047417Y0097819D01*
X0041793Y0097819D02*
X0041544Y0097819D01*
X0040506Y0096221D02*
X0039946Y0096221D01*
X0040030Y0094622D02*
X0038347Y0094622D01*
X0036749Y0093024D02*
X0040125Y0093024D01*
X0040871Y0091425D02*
X0035150Y0091425D01*
X0033552Y0089827D02*
X0043115Y0089827D01*
X0042469Y0088228D02*
X0031953Y0088228D01*
X0030355Y0086630D02*
X0040676Y0086630D01*
X0040030Y0085031D02*
X0031258Y0085031D01*
X0033456Y0083433D02*
X0040030Y0083433D01*
X0040617Y0081834D02*
X0034050Y0081834D01*
X0033979Y0080236D02*
X0042128Y0080236D01*
X0043457Y0078637D02*
X0033142Y0078637D01*
X0032650Y0077039D02*
X0041013Y0077039D01*
X0040183Y0075440D02*
X0032650Y0075440D01*
X0032650Y0073842D02*
X0040030Y0073842D01*
X0040448Y0072243D02*
X0032650Y0072243D01*
X0032650Y0070645D02*
X0041652Y0070645D01*
X0041422Y0067448D02*
X0034831Y0067448D01*
X0036430Y0065849D02*
X0040353Y0065849D01*
X0040030Y0064250D02*
X0038029Y0064250D01*
X0039627Y0062652D02*
X0040278Y0062652D01*
X0035873Y0059052D02*
X0035527Y0059052D01*
X0024800Y0069779D01*
X0024800Y0070097D01*
X0024039Y0071934D01*
X0022632Y0073341D01*
X0020795Y0074102D01*
X0012805Y0074102D01*
X0020795Y0074102D01*
X0022632Y0074863D01*
X0024039Y0076270D01*
X0024800Y0078107D01*
X0024800Y0078325D01*
X0026293Y0079819D01*
X0026659Y0078936D01*
X0027450Y0078145D01*
X0027450Y0068035D01*
X0027846Y0067079D01*
X0028577Y0066348D01*
X0028577Y0066348D01*
X0035873Y0059052D01*
X0035470Y0059455D02*
X0035124Y0059455D01*
X0033872Y0061053D02*
X0033526Y0061053D01*
X0032273Y0062652D02*
X0031927Y0062652D01*
X0030675Y0064250D02*
X0030329Y0064250D01*
X0029076Y0065849D02*
X0028730Y0065849D01*
X0027693Y0067448D02*
X0027131Y0067448D01*
X0027450Y0069046D02*
X0025533Y0069046D01*
X0024573Y0070645D02*
X0027450Y0070645D01*
X0027450Y0072243D02*
X0023730Y0072243D01*
X0021423Y0073842D02*
X0027450Y0073842D01*
X0027450Y0075440D02*
X0023209Y0075440D01*
X0024357Y0077039D02*
X0027450Y0077039D01*
X0026958Y0078637D02*
X0025112Y0078637D01*
X0022554Y0083433D02*
X0022411Y0083433D01*
X0022632Y0084863D02*
X0024039Y0086270D01*
X0024800Y0088107D01*
X0024800Y0090097D01*
X0024039Y0091934D01*
X0022632Y0093341D01*
X0020795Y0094102D01*
X0012805Y0094102D01*
X0010968Y0093341D01*
X0009561Y0091934D01*
X0008800Y0090097D01*
X0008800Y0088107D01*
X0009561Y0086270D01*
X0010968Y0084863D01*
X0012805Y0084102D01*
X0020795Y0084102D01*
X0022632Y0084863D01*
X0022800Y0085031D02*
X0024152Y0085031D01*
X0024188Y0086630D02*
X0024700Y0086630D01*
X0024800Y0088228D02*
X0024890Y0088228D01*
X0024800Y0089827D02*
X0026198Y0089827D01*
X0027796Y0091425D02*
X0024250Y0091425D01*
X0022949Y0093024D02*
X0029395Y0093024D01*
X0030993Y0094622D02*
X0022050Y0094622D01*
X0022632Y0094863D02*
X0020795Y0094102D01*
X0012805Y0094102D01*
X0010968Y0094863D01*
X0009561Y0096270D01*
X0008800Y0098107D01*
X0008800Y0100097D01*
X0009561Y0101934D01*
X0010968Y0103341D01*
X0012805Y0104102D01*
X0020795Y0104102D01*
X0022632Y0103341D01*
X0024039Y0101934D01*
X0024800Y0100097D01*
X0024800Y0098107D01*
X0024039Y0096270D01*
X0022632Y0094863D01*
X0023990Y0096221D02*
X0032592Y0096221D01*
X0034190Y0097819D02*
X0024681Y0097819D01*
X0024800Y0099418D02*
X0035789Y0099418D01*
X0037387Y0101016D02*
X0024419Y0101016D01*
X0023358Y0102615D02*
X0038986Y0102615D01*
X0054605Y0098536D02*
X0054605Y0094161D01*
X0054605Y0094161D01*
X0054605Y0094161D01*
X0058980Y0094161D01*
X0058980Y0096973D01*
X0058857Y0097431D01*
X0058620Y0097841D01*
X0058285Y0098176D01*
X0057875Y0098413D01*
X0057417Y0098536D01*
X0054605Y0098536D01*
X0054605Y0097819D02*
X0054605Y0097819D01*
X0054605Y0096221D02*
X0054605Y0096221D01*
X0054605Y0094622D02*
X0054605Y0094622D01*
X0054605Y0093024D02*
X0054605Y0093024D01*
X0054605Y0091425D02*
X0054605Y0091425D01*
X0054605Y0089827D02*
X0054605Y0089827D01*
X0057567Y0089827D02*
X0058098Y0089827D01*
X0058980Y0091425D02*
X0059350Y0091425D01*
X0059350Y0093024D02*
X0058980Y0093024D01*
X0058980Y0094622D02*
X0059350Y0094622D01*
X0059350Y0096221D02*
X0058980Y0096221D01*
X0058706Y0097819D02*
X0058633Y0097819D01*
X0062863Y0101016D02*
X0135701Y0101016D01*
X0135701Y0102615D02*
X0061264Y0102615D01*
X0064281Y0099418D02*
X0135701Y0099418D01*
X0135701Y0097819D02*
X0064550Y0097819D01*
X0064550Y0096221D02*
X0135701Y0096221D01*
X0135701Y0094622D02*
X0064550Y0094622D01*
X0064550Y0093024D02*
X0135701Y0093024D01*
X0135701Y0091425D02*
X0064550Y0091425D01*
X0064550Y0089827D02*
X0135701Y0089827D01*
X0135701Y0088228D02*
X0063853Y0088228D01*
X0062255Y0086630D02*
X0135701Y0086630D01*
X0135701Y0085031D02*
X0060656Y0085031D01*
X0059180Y0083433D02*
X0135701Y0083433D01*
X0135701Y0081834D02*
X0058593Y0081834D01*
X0057083Y0080236D02*
X0135701Y0080236D01*
X0135701Y0078637D02*
X0055754Y0078637D01*
X0058197Y0077039D02*
X0135701Y0077039D01*
X0135701Y0075440D02*
X0059027Y0075440D01*
X0060413Y0073842D02*
X0135701Y0073842D01*
X0135701Y0072243D02*
X0062486Y0072243D01*
X0064084Y0070645D02*
X0135701Y0070645D01*
X0135701Y0069046D02*
X0064550Y0069046D01*
X0064550Y0067448D02*
X0135701Y0067448D01*
X0135701Y0065849D02*
X0064550Y0065849D01*
X0064550Y0064250D02*
X0135701Y0064250D01*
X0135701Y0062652D02*
X0064550Y0062652D01*
X0064550Y0061053D02*
X0135701Y0061053D01*
X0135701Y0059455D02*
X0064550Y0059455D01*
X0063731Y0057856D02*
X0135701Y0057856D01*
X0135701Y0056258D02*
X0062133Y0056258D01*
X0060534Y0054659D02*
X0135701Y0054659D01*
X0135701Y0053061D02*
X0006600Y0053061D01*
X0006600Y0051462D02*
X0135701Y0051462D01*
X0135701Y0049864D02*
X0006600Y0049864D01*
X0006600Y0048265D02*
X0009458Y0048265D01*
X0009895Y0048702D02*
X0007200Y0046007D01*
X0007200Y0042197D01*
X0009895Y0039502D01*
X0013705Y0039502D01*
X0016400Y0042197D01*
X0016400Y0046007D01*
X0013705Y0048702D01*
X0009895Y0048702D01*
X0007859Y0046667D02*
X0006600Y0046667D01*
X0006600Y0045068D02*
X0007200Y0045068D01*
X0007200Y0043470D02*
X0006600Y0043470D01*
X0006600Y0041871D02*
X0007525Y0041871D01*
X0006600Y0040273D02*
X0009124Y0040273D01*
X0006600Y0038674D02*
X0055000Y0038674D01*
X0055000Y0038902D02*
X0055000Y0036285D01*
X0058983Y0032302D01*
X0061600Y0032302D01*
X0061600Y0038902D01*
X0062000Y0038902D01*
X0062000Y0032302D01*
X0064617Y0032302D01*
X0068600Y0036285D01*
X0068600Y0038902D01*
X0062000Y0038902D01*
X0062000Y0039302D01*
X0068600Y0039302D01*
X0068600Y0041919D01*
X0064617Y0045902D01*
X0062000Y0045902D01*
X0062000Y0039302D01*
X0061600Y0039302D01*
X0061600Y0038902D01*
X0055000Y0038902D01*
X0055000Y0039302D02*
X0061600Y0039302D01*
X0061600Y0045902D01*
X0058983Y0045902D01*
X0055000Y0041919D01*
X0055000Y0039302D01*
X0055000Y0040273D02*
X0029476Y0040273D01*
X0028705Y0039502D02*
X0031400Y0042197D01*
X0031400Y0046007D01*
X0028705Y0048702D01*
X0024895Y0048702D01*
X0022200Y0046007D01*
X0022200Y0042197D01*
X0024895Y0039502D01*
X0028705Y0039502D01*
X0031075Y0041871D02*
X0055000Y0041871D01*
X0056551Y0043470D02*
X0031400Y0043470D01*
X0031400Y0045068D02*
X0058150Y0045068D01*
X0061600Y0045068D02*
X0062000Y0045068D01*
X0062000Y0043470D02*
X0061600Y0043470D01*
X0061600Y0041871D02*
X0062000Y0041871D01*
X0062000Y0040273D02*
X0061600Y0040273D01*
X0061600Y0038674D02*
X0062000Y0038674D01*
X0062000Y0037076D02*
X0061600Y0037076D01*
X0061600Y0035477D02*
X0062000Y0035477D01*
X0062000Y0033879D02*
X0061600Y0033879D01*
X0057407Y0033879D02*
X0006600Y0033879D01*
X0006600Y0035477D02*
X0055808Y0035477D01*
X0055000Y0037076D02*
X0006600Y0037076D01*
X0006600Y0032280D02*
X0090190Y0032280D01*
X0090139Y0032229D02*
X0089695Y0031618D01*
X0089352Y0030945D01*
X0089118Y0030226D01*
X0089000Y0029480D01*
X0089000Y0029302D01*
X0096600Y0029302D01*
X0096600Y0028902D01*
X0097000Y0028902D01*
X0097000Y0024302D01*
X0100178Y0024302D01*
X0100924Y0024420D01*
X0101643Y0024654D01*
X0102316Y0024997D01*
X0102927Y0025441D01*
X0103461Y0025975D01*
X0103905Y0026586D01*
X0104248Y0027259D01*
X0104482Y0027978D01*
X0104600Y0028724D01*
X0104600Y0028902D01*
X0097000Y0028902D01*
X0097000Y0029302D01*
X0104600Y0029302D01*
X0104600Y0029480D01*
X0104482Y0030226D01*
X0104248Y0030945D01*
X0103905Y0031618D01*
X0103461Y0032229D01*
X0102927Y0032763D01*
X0102316Y0033207D01*
X0101643Y0033550D01*
X0100924Y0033784D01*
X0100178Y0033902D01*
X0097000Y0033902D01*
X0097000Y0029302D01*
X0096600Y0029302D01*
X0096600Y0033902D01*
X0093422Y0033902D01*
X0092676Y0033784D01*
X0091957Y0033550D01*
X0091284Y0033207D01*
X0090673Y0032763D01*
X0090139Y0032229D01*
X0090968Y0034863D02*
X0092805Y0034102D01*
X0100795Y0034102D01*
X0102632Y0034863D01*
X0104039Y0036270D01*
X0104800Y0038107D01*
X0104800Y0040097D01*
X0104039Y0041934D01*
X0102632Y0043341D01*
X0100795Y0044102D01*
X0092805Y0044102D01*
X0090968Y0043341D01*
X0089561Y0041934D01*
X0088800Y0040097D01*
X0088800Y0038107D01*
X0089561Y0036270D01*
X0090968Y0034863D01*
X0090354Y0035477D02*
X0067792Y0035477D01*
X0066193Y0033879D02*
X0093275Y0033879D01*
X0096600Y0033879D02*
X0097000Y0033879D01*
X0097000Y0032280D02*
X0096600Y0032280D01*
X0096600Y0030682D02*
X0097000Y0030682D01*
X0097000Y0029083D02*
X0121600Y0029083D01*
X0121600Y0028902D02*
X0114000Y0028902D01*
X0114000Y0028724D01*
X0114118Y0027978D01*
X0114352Y0027259D01*
X0114695Y0026586D01*
X0115139Y0025975D01*
X0115673Y0025441D01*
X0116284Y0024997D01*
X0116957Y0024654D01*
X0117676Y0024420D01*
X0118422Y0024302D01*
X0121600Y0024302D01*
X0121600Y0028902D01*
X0122000Y0028902D01*
X0122000Y0024302D01*
X0125178Y0024302D01*
X0125924Y0024420D01*
X0126643Y0024654D01*
X0127316Y0024997D01*
X0127927Y0025441D01*
X0128461Y0025975D01*
X0128905Y0026586D01*
X0129248Y0027259D01*
X0129482Y0027978D01*
X0129600Y0028724D01*
X0129600Y0028902D01*
X0122000Y0028902D01*
X0122000Y0029302D01*
X0129600Y0029302D01*
X0129600Y0029480D01*
X0129482Y0030226D01*
X0129248Y0030945D01*
X0128905Y0031618D01*
X0128461Y0032229D01*
X0127927Y0032763D01*
X0127316Y0033207D01*
X0126643Y0033550D01*
X0125924Y0033784D01*
X0125178Y0033902D01*
X0122000Y0033902D01*
X0122000Y0029302D01*
X0121600Y0029302D01*
X0121600Y0028902D01*
X0121600Y0029302D02*
X0114000Y0029302D01*
X0114000Y0029480D01*
X0114118Y0030226D01*
X0114352Y0030945D01*
X0114695Y0031618D01*
X0115139Y0032229D01*
X0115673Y0032763D01*
X0116284Y0033207D01*
X0116957Y0033550D01*
X0117676Y0033784D01*
X0118422Y0033902D01*
X0121600Y0033902D01*
X0121600Y0029302D01*
X0122000Y0029083D02*
X0135701Y0029083D01*
X0135701Y0030682D02*
X0129334Y0030682D01*
X0128410Y0032280D02*
X0135701Y0032280D01*
X0135701Y0033879D02*
X0125325Y0033879D01*
X0125795Y0034102D02*
X0127632Y0034863D01*
X0129039Y0036270D01*
X0129800Y0038107D01*
X0129800Y0040097D01*
X0129039Y0041934D01*
X0127632Y0043341D01*
X0125795Y0044102D01*
X0117805Y0044102D01*
X0115968Y0043341D01*
X0114561Y0041934D01*
X0113800Y0040097D01*
X0113800Y0038107D01*
X0114561Y0036270D01*
X0115968Y0034863D01*
X0117805Y0034102D01*
X0125795Y0034102D01*
X0128246Y0035477D02*
X0135701Y0035477D01*
X0135701Y0037076D02*
X0129373Y0037076D01*
X0129800Y0038674D02*
X0135701Y0038674D01*
X0135701Y0040273D02*
X0129727Y0040273D01*
X0129065Y0041871D02*
X0135701Y0041871D01*
X0135701Y0043470D02*
X0127321Y0043470D01*
X0135701Y0045068D02*
X0065450Y0045068D01*
X0067049Y0043470D02*
X0091279Y0043470D01*
X0089535Y0041871D02*
X0068600Y0041871D01*
X0068600Y0040273D02*
X0088873Y0040273D01*
X0088800Y0038674D02*
X0068600Y0038674D01*
X0068600Y0037076D02*
X0089227Y0037076D01*
X0089266Y0030682D02*
X0006600Y0030682D01*
X0006600Y0029083D02*
X0096600Y0029083D01*
X0096600Y0028902D02*
X0089000Y0028902D01*
X0089000Y0028724D01*
X0089118Y0027978D01*
X0089352Y0027259D01*
X0089695Y0026586D01*
X0090139Y0025975D01*
X0090673Y0025441D01*
X0091284Y0024997D01*
X0091957Y0024654D01*
X0092676Y0024420D01*
X0093422Y0024302D01*
X0096600Y0024302D01*
X0096600Y0028902D01*
X0096600Y0027485D02*
X0097000Y0027485D01*
X0097000Y0025886D02*
X0096600Y0025886D01*
X0092805Y0024102D02*
X0090968Y0023341D01*
X0089561Y0021934D01*
X0088800Y0020097D01*
X0088800Y0018107D01*
X0089561Y0016270D01*
X0090968Y0014863D01*
X0092805Y0014102D01*
X0100795Y0014102D01*
X0102632Y0014863D01*
X0104039Y0016270D01*
X0104800Y0018107D01*
X0104800Y0020097D01*
X0104039Y0021934D01*
X0102632Y0023341D01*
X0100795Y0024102D01*
X0092805Y0024102D01*
X0090316Y0022689D02*
X0067891Y0022689D01*
X0067734Y0023067D02*
X0065765Y0025036D01*
X0063192Y0026102D01*
X0060408Y0026102D01*
X0057835Y0025036D01*
X0055866Y0023067D01*
X0054800Y0020494D01*
X0054800Y0017710D01*
X0055866Y0015137D01*
X0057835Y0013168D01*
X0060408Y0012102D01*
X0063192Y0012102D01*
X0065765Y0013168D01*
X0067734Y0015137D01*
X0068800Y0017710D01*
X0068800Y0020494D01*
X0067734Y0023067D01*
X0066514Y0024288D02*
X0135701Y0024288D01*
X0135701Y0022689D02*
X0128284Y0022689D01*
X0127632Y0023341D02*
X0125795Y0024102D01*
X0117805Y0024102D01*
X0115968Y0023341D01*
X0114561Y0021934D01*
X0113800Y0020097D01*
X0113800Y0018107D01*
X0114561Y0016270D01*
X0115968Y0014863D01*
X0117805Y0014102D01*
X0125795Y0014102D01*
X0127632Y0014863D01*
X0129039Y0016270D01*
X0129800Y0018107D01*
X0129800Y0020097D01*
X0129039Y0021934D01*
X0127632Y0023341D01*
X0128372Y0025886D02*
X0135701Y0025886D01*
X0135701Y0027485D02*
X0129321Y0027485D01*
X0129388Y0021091D02*
X0135701Y0021091D01*
X0135701Y0019492D02*
X0129800Y0019492D01*
X0129711Y0017894D02*
X0135701Y0017894D01*
X0135701Y0016295D02*
X0129049Y0016295D01*
X0127230Y0014697D02*
X0135701Y0014697D01*
X0135701Y0013098D02*
X0065597Y0013098D01*
X0067294Y0014697D02*
X0091370Y0014697D01*
X0089551Y0016295D02*
X0068214Y0016295D01*
X0068800Y0017894D02*
X0088889Y0017894D01*
X0088800Y0019492D02*
X0068800Y0019492D01*
X0068553Y0021091D02*
X0089212Y0021091D01*
X0090228Y0025886D02*
X0063713Y0025886D01*
X0059887Y0025886D02*
X0006600Y0025886D01*
X0006600Y0027485D02*
X0089278Y0027485D01*
X0100325Y0033879D02*
X0118275Y0033879D01*
X0121600Y0033879D02*
X0122000Y0033879D01*
X0122000Y0032280D02*
X0121600Y0032280D01*
X0121600Y0030682D02*
X0122000Y0030682D01*
X0122000Y0027485D02*
X0121600Y0027485D01*
X0121600Y0025886D02*
X0122000Y0025886D01*
X0115228Y0025886D02*
X0103372Y0025886D01*
X0104321Y0027485D02*
X0114278Y0027485D01*
X0114266Y0030682D02*
X0104334Y0030682D01*
X0103410Y0032280D02*
X0115190Y0032280D01*
X0115354Y0035477D02*
X0103246Y0035477D01*
X0104373Y0037076D02*
X0114227Y0037076D01*
X0113800Y0038674D02*
X0104800Y0038674D01*
X0104727Y0040273D02*
X0113873Y0040273D01*
X0114535Y0041871D02*
X0104065Y0041871D01*
X0102321Y0043470D02*
X0116279Y0043470D01*
X0135701Y0046667D02*
X0030741Y0046667D01*
X0029142Y0048265D02*
X0135701Y0048265D01*
X0115316Y0022689D02*
X0103284Y0022689D01*
X0104388Y0021091D02*
X0114212Y0021091D01*
X0113800Y0019492D02*
X0104800Y0019492D01*
X0104711Y0017894D02*
X0113889Y0017894D01*
X0114551Y0016295D02*
X0104049Y0016295D01*
X0102230Y0014697D02*
X0116370Y0014697D01*
X0135701Y0011500D02*
X0030703Y0011500D01*
X0031400Y0012197D02*
X0028705Y0009502D01*
X0024895Y0009502D01*
X0022200Y0012197D01*
X0022200Y0016007D01*
X0024895Y0018702D01*
X0028705Y0018702D01*
X0031400Y0016007D01*
X0031400Y0012197D01*
X0031400Y0013098D02*
X0058003Y0013098D01*
X0056306Y0014697D02*
X0031400Y0014697D01*
X0031112Y0016295D02*
X0055386Y0016295D01*
X0054800Y0017894D02*
X0029514Y0017894D01*
X0024086Y0017894D02*
X0014514Y0017894D01*
X0013705Y0018702D02*
X0009895Y0018702D01*
X0007200Y0016007D01*
X0007200Y0012197D01*
X0009895Y0009502D01*
X0013705Y0009502D01*
X0016400Y0012197D01*
X0016400Y0016007D01*
X0013705Y0018702D01*
X0016112Y0016295D02*
X0022488Y0016295D01*
X0022200Y0014697D02*
X0016400Y0014697D01*
X0016400Y0013098D02*
X0022200Y0013098D01*
X0022897Y0011500D02*
X0015703Y0011500D01*
X0014104Y0009901D02*
X0024496Y0009901D01*
X0029104Y0009901D02*
X0135701Y0009901D01*
X0135701Y0008902D02*
X0135701Y0104263D01*
X0006600Y0104263D01*
X0006600Y0008902D01*
X0135701Y0008902D01*
X0059350Y0061053D02*
X0059180Y0061053D01*
X0059180Y0062652D02*
X0059350Y0062652D01*
X0059350Y0064250D02*
X0059180Y0064250D01*
X0059180Y0065849D02*
X0059350Y0065849D01*
X0059350Y0067448D02*
X0059180Y0067448D01*
X0057852Y0069046D02*
X0033233Y0069046D01*
X0024573Y0062652D02*
X0023038Y0062652D01*
X0022927Y0062763D02*
X0022316Y0063207D01*
X0021643Y0063550D01*
X0020924Y0063784D01*
X0020178Y0063902D01*
X0017000Y0063902D01*
X0017000Y0059302D01*
X0024600Y0059302D01*
X0024600Y0059480D01*
X0024482Y0060226D01*
X0024248Y0060945D01*
X0023905Y0061618D01*
X0023461Y0062229D01*
X0022927Y0062763D01*
X0022975Y0064250D02*
X0021153Y0064250D01*
X0024193Y0061053D02*
X0026172Y0061053D01*
X0024600Y0059455D02*
X0027770Y0059455D01*
X0029369Y0057856D02*
X0024442Y0057856D01*
X0024482Y0057978D02*
X0024600Y0058724D01*
X0024600Y0058902D01*
X0017000Y0058902D01*
X0017000Y0054302D01*
X0020178Y0054302D01*
X0020924Y0054420D01*
X0021643Y0054654D01*
X0022316Y0054997D01*
X0022927Y0055441D01*
X0023461Y0055975D01*
X0023905Y0056586D01*
X0024248Y0057259D01*
X0024482Y0057978D01*
X0023667Y0056258D02*
X0030967Y0056258D01*
X0032566Y0054659D02*
X0021654Y0054659D01*
X0017000Y0054659D02*
X0016600Y0054659D01*
X0016600Y0054302D02*
X0016600Y0058902D01*
X0017000Y0058902D01*
X0017000Y0059302D01*
X0016600Y0059302D01*
X0016600Y0058902D01*
X0009000Y0058902D01*
X0009000Y0058724D01*
X0009118Y0057978D01*
X0009352Y0057259D01*
X0009695Y0056586D01*
X0010139Y0055975D01*
X0010673Y0055441D01*
X0011284Y0054997D01*
X0011957Y0054654D01*
X0012676Y0054420D01*
X0013422Y0054302D01*
X0016600Y0054302D01*
X0016600Y0056258D02*
X0017000Y0056258D01*
X0017000Y0057856D02*
X0016600Y0057856D01*
X0016600Y0059302D02*
X0009000Y0059302D01*
X0009000Y0059480D01*
X0009118Y0060226D01*
X0009352Y0060945D01*
X0009695Y0061618D01*
X0010139Y0062229D01*
X0010673Y0062763D01*
X0011284Y0063207D01*
X0011957Y0063550D01*
X0012676Y0063784D01*
X0013422Y0063902D01*
X0016600Y0063902D01*
X0016600Y0059302D01*
X0016600Y0059455D02*
X0017000Y0059455D01*
X0017000Y0061053D02*
X0016600Y0061053D01*
X0016600Y0062652D02*
X0017000Y0062652D01*
X0012447Y0064250D02*
X0006600Y0064250D01*
X0006600Y0062652D02*
X0010562Y0062652D01*
X0009407Y0061053D02*
X0006600Y0061053D01*
X0006600Y0059455D02*
X0009000Y0059455D01*
X0009158Y0057856D02*
X0006600Y0057856D01*
X0006600Y0056258D02*
X0009933Y0056258D01*
X0011946Y0054659D02*
X0006600Y0054659D01*
X0014142Y0048265D02*
X0024458Y0048265D01*
X0022859Y0046667D02*
X0015741Y0046667D01*
X0016400Y0045068D02*
X0022200Y0045068D01*
X0022200Y0043470D02*
X0016400Y0043470D01*
X0016075Y0041871D02*
X0022525Y0041871D01*
X0024124Y0040273D02*
X0014476Y0040273D01*
X0006600Y0024288D02*
X0057086Y0024288D01*
X0055709Y0022689D02*
X0006600Y0022689D01*
X0006600Y0021091D02*
X0055047Y0021091D01*
X0054800Y0019492D02*
X0006600Y0019492D01*
X0006600Y0017894D02*
X0009086Y0017894D01*
X0007488Y0016295D02*
X0006600Y0016295D01*
X0006600Y0014697D02*
X0007200Y0014697D01*
X0007200Y0013098D02*
X0006600Y0013098D01*
X0006600Y0011500D02*
X0007897Y0011500D01*
X0006600Y0009901D02*
X0009496Y0009901D01*
X0053780Y0059455D02*
X0057976Y0059455D01*
X0012177Y0073842D02*
X0006600Y0073842D01*
X0006600Y0072243D02*
X0009870Y0072243D01*
X0009027Y0070645D02*
X0006600Y0070645D01*
X0006600Y0069046D02*
X0008800Y0069046D01*
X0009073Y0067448D02*
X0006600Y0067448D01*
X0006600Y0065849D02*
X0009982Y0065849D01*
X0010391Y0075440D02*
X0006600Y0075440D01*
X0006600Y0077039D02*
X0009243Y0077039D01*
X0008800Y0078637D02*
X0006600Y0078637D01*
X0006600Y0080236D02*
X0008858Y0080236D01*
X0009520Y0081834D02*
X0006600Y0081834D01*
X0006600Y0083433D02*
X0011189Y0083433D01*
X0010800Y0085031D02*
X0006600Y0085031D01*
X0006600Y0086630D02*
X0009412Y0086630D01*
X0008800Y0088228D02*
X0006600Y0088228D01*
X0006600Y0089827D02*
X0008800Y0089827D01*
X0009350Y0091425D02*
X0006600Y0091425D01*
X0006600Y0093024D02*
X0010651Y0093024D01*
X0011550Y0094622D02*
X0006600Y0094622D01*
X0006600Y0096221D02*
X0009610Y0096221D01*
X0008919Y0097819D02*
X0006600Y0097819D01*
X0006600Y0099418D02*
X0008800Y0099418D01*
X0009181Y0101016D02*
X0006600Y0101016D01*
X0006600Y0102615D02*
X0010242Y0102615D01*
X0006600Y0104213D02*
X0135701Y0104213D01*
D18*
X0061950Y0098252D02*
X0061950Y0090002D01*
X0056450Y0084502D01*
X0054800Y0084502D01*
X0054605Y0084161D01*
X0054605Y0074161D02*
X0054800Y0074052D01*
X0056450Y0074052D01*
X0059200Y0071302D01*
X0059750Y0071302D01*
X0061950Y0069102D01*
X0061950Y0059752D01*
X0058650Y0056452D01*
X0034450Y0056452D01*
X0021800Y0069102D01*
X0016800Y0069102D01*
X0016800Y0079102D02*
X0016850Y0079552D01*
X0022350Y0079552D01*
X0027300Y0084502D01*
X0027300Y0087252D01*
X0041600Y0101552D01*
X0058650Y0101552D01*
X0061950Y0098252D01*
X0030050Y0081202D02*
X0030050Y0068552D01*
X0039950Y0058652D01*
X0049300Y0058652D01*
X0053150Y0062502D01*
X0053150Y0063052D01*
X0054250Y0064152D01*
X0054605Y0064161D01*
D19*
X0030050Y0081202D03*
M02*
