G75*
%MOIN*%
%OFA0B0*%
%FSLAX25Y25*%
%IPPOS*%
%LPD*%
%AMOC8*
5,1,8,0,0,1.08239X$1,22.5*
%
%ADD10C,0.00000*%
%ADD11C,0.10800*%
%ADD12OC8,0.10800*%
%ADD13C,0.06800*%
%ADD14OC8,0.06000*%
%ADD15R,0.05950X0.05950*%
%ADD16C,0.05950*%
%ADD17C,0.04800*%
D10*
X0001800Y0004102D02*
X0001800Y0109063D01*
X0140501Y0109063D01*
X0140501Y0004102D01*
X0001800Y0004102D01*
D11*
X0061800Y0019102D03*
D12*
X0061800Y0039102D03*
D13*
X0093800Y0039102D02*
X0099800Y0039102D01*
X0099800Y0029102D02*
X0093800Y0029102D01*
X0093800Y0019102D02*
X0099800Y0019102D01*
X0118800Y0019102D02*
X0124800Y0019102D01*
X0124800Y0029102D02*
X0118800Y0029102D01*
X0118800Y0039102D02*
X0124800Y0039102D01*
X0019800Y0059102D02*
X0013800Y0059102D01*
X0013800Y0069102D02*
X0019800Y0069102D01*
X0019800Y0079102D02*
X0013800Y0079102D01*
X0013800Y0089102D02*
X0019800Y0089102D01*
X0019800Y0099102D02*
X0013800Y0099102D01*
D14*
X0011800Y0044102D03*
X0026800Y0044102D03*
X0026800Y0014102D03*
X0011800Y0014102D03*
D15*
X0054605Y0064161D03*
X0054605Y0094161D03*
D16*
X0044605Y0094161D03*
X0044605Y0084161D03*
X0054605Y0084161D03*
X0054605Y0074161D03*
X0044605Y0074161D03*
X0044605Y0064161D03*
D17*
X0030050Y0081202D03*
M02*
